<?xml version="1.0" encoding="UTF-8"?>
<!DOCTYPE svg PUBLIC "-//W3C//DTD SVG 1.1//EN" "http://www.w3.org/Graphics/SVG/1.1/DTD/svg11.dtd">
<!-- Creator: CorelDRAW -->
<svg xmlns="http://www.w3.org/2000/svg" xml:space="preserve" width="6.66666in" height="6.66666in" version="1.1" style="shape-rendering:geometricPrecision; text-rendering:geometricPrecision; image-rendering:optimizeQuality; fill-rule:evenodd; clip-rule:evenodd"
viewBox="0 0 6666.66 6666.66"
 xmlns:xlink="http://www.w3.org/1999/xlink"
 xmlns:xodm="http://www.corel.com/coreldraw/odm/2003">
 <defs>
  <style type="text/css">
   <![CDATA[
    .fil0 {fill:#DECDA2}
   ]]>
  </style>
 </defs>
 <g id="Layer_x0020_1">
  <metadata id="CorelCorpID_0Corel-Layer"/>
  <path class="fil0" d="M1916.49 3468.48c-277.96,-573.42 -111,-1513.54 645.19,-1791.93 623.45,-229.46 1277.13,-37.51 1325.89,244.21 20,115.54 -54.59,194 -157,303.44 -393.76,420.79 386.28,420.79 219.14,0 -46.6,-117.25 -72.45,-184.46 3.96,-303.36 101.89,-158.63 319.5,-337.78 395.12,-453.15 4.29,-6.52 4.54,-13.39 0.69,-18.45 -3.87,-5.07 -10.81,-6.87 -18.64,-4.89 -692.82,198.29 -1237.22,-90.39 -2038.72,126.62 -222.76,60.26 -411.43,173.23 -563.38,319.76 -24.31,23.43 -47.68,47.73 -70.11,72.81 82.2,-172.17 179.46,-330.85 289.39,-473 356.93,-461.57 846.91,-747.08 1385.31,-747.08 538.4,0 1028.37,285.52 1385.3,747.08 363.79,470.31 588.77,1121.76 588.77,1842.83 0,57 -1.41,113.56 -4.17,169.63l-0 0c-82.35,-181.87 -227.71,-340.28 -445.31,-451.11 -254.1,-129.45 -603.56,-208.16 -1062.63,-208.16l-767.24 -1.72c-19.49,0 -33.23,11.94 -42.15,44.9 -8.84,33.04 -5.24,70.3 14.17,70.82 577.8,14.42 368.25,899.95 -270.83,964.85 -300.44,30.47 -643.12,-104.12 -812.74,-454.1zm-554.8 -7.72c11.67,31.3 24.57,62.06 38.73,92.19 71.66,152.63 175.36,289.2 312.8,397.96 436.84,345.69 1096.62,330.48 1456.29,-27.82l-332.2 975.24c-91.94,278.03 -170.14,327.48 -378.39,327.48 -22.24,0 -37.78,16.57 -46.7,49.53 -8.84,33.04 -2.23,49.53 20.01,49.53 697.77,46.24 1813.54,48.93 2456.31,-398.36 -52.52,87.92 -109.28,171.32 -169.9,249.69 -356.93,461.57 -846.91,747.07 -1385.3,747.07 -538.4,0 -1028.37,-285.5 -1385.31,-747.07 -342.16,-442.47 -561.55,-1045.23 -586.34,-1715.44zm3922.67 1005.52c38.97,-85 67.92,-177.88 85.35,-279.31 68.97,-268.61 106.3,-555.59 106.3,-853.6 0,-748.96 -235.8,-1428.31 -617.02,-1921.3 -388,-501.74 -927.26,-812.15 -1525.65,-812.15 -598.4,0 -1137.65,310.4 -1525.65,812.15 -381.22,492.98 -617.03,1172.33 -617.03,1921.3 0,748.95 235.81,1428.3 617.03,1921.29 388,501.74 927.26,812.06 1525.65,812.06 598.39,0 1137.65,-310.32 1525.65,-812.06 175.58,-227.06 320.31,-493.66 425.37,-788.38zm-2187.81 773.01l729.74 -2282.59c291.26,-9.45 605.95,29.88 843.56,212.8 753.59,580.45 147.73,2164.48 -1573.3,2069.8z"/>
 </g>
</svg>
