<?xml version="1.0" encoding="UTF-8"?>
<!DOCTYPE svg PUBLIC "-//W3C//DTD SVG 1.1//EN" "http://www.w3.org/Graphics/SVG/1.1/DTD/svg11.dtd">
<!-- Creator: CorelDRAW -->
<svg xmlns="http://www.w3.org/2000/svg" xml:space="preserve" width="6.66666in" height="6.66666in" version="1.1" style="shape-rendering:geometricPrecision; text-rendering:geometricPrecision; image-rendering:optimizeQuality; fill-rule:evenodd; clip-rule:evenodd"
viewBox="0 0 6666.66 6666.66"
 xmlns:xlink="http://www.w3.org/1999/xlink"
 xmlns:xodm="http://www.corel.com/coreldraw/odm/2003">
 <defs>
  <style type="text/css">
   <![CDATA[
    .fil1 {fill:#DECDA2}
    .fil0 {fill:#DECDA2;fill-rule:nonzero}
   ]]>
  </style>
 </defs>
 <g id="Layer_x0020_1">
  <metadata id="CorelCorpID_0Corel-Layer"/>
  <g id="_2815008324240">
   <g>
    <path class="fil0" d="M3333.32 976.06c293.07,0 557.19,152.02 747.21,397.76 186.71,241.44 302.2,574.17 302.2,940.98 0,366.81 -115.49,699.54 -302.2,940.98 -190.03,245.74 -454.14,397.72 -747.21,397.72 -293.07,0 -557.19,-151.98 -747.21,-397.72 -186.71,-241.45 -302.2,-574.17 -302.2,-940.98 0,-366.82 115.49,-699.54 302.2,-940.98 190.03,-245.74 454.14,-397.76 747.21,-397.76zm678.48 436.19c-174.81,-226.06 -414.79,-365.89 -678.48,-365.89 -263.69,0 -503.67,139.83 -678.47,365.89 -178.13,230.35 -288.33,549.41 -288.33,902.56 0,353.15 110.19,672.21 288.33,902.56 174.81,226.06 414.78,365.89 678.47,365.89 263.69,0 503.67,-139.83 678.48,-365.89 178.17,-230.35 288.37,-549.41 288.37,-902.56 0,-353.15 -110.19,-672.21 -288.37,-902.56z"/>
    <path class="fil1" d="M3253.09 2603.63l-162.7 477.64c-45.03,136.17 -83.33,160.39 -185.32,160.39 -10.89,0 -18.5,8.11 -22.87,24.26 -4.33,16.19 -1.09,24.26 9.8,24.26 518.3,34.35 1507.46,19.63 1445.28,-738.51 -12.44,-151.48 -92.66,-290.89 -257.26,-374.72 -124.44,-63.4 -295.6,-101.95 -520.44,-101.95l-375.77 -0.84c-9.54,0 -16.27,5.84 -20.65,21.99 -4.33,16.19 -2.56,34.43 6.94,34.69 282.99,7.06 180.36,440.77 -132.64,472.55 -147.15,14.93 -314.98,-51 -398.06,-222.4 -136.13,-280.84 -54.36,-741.28 315.99,-877.63 305.35,-112.38 625.5,-18.37 649.38,119.61 9.8,56.59 -26.74,95.02 -76.89,148.62 -192.85,206.09 189.19,206.09 107.33,0 -22.83,-57.43 -35.48,-90.35 1.93,-148.58 49.9,-77.69 156.48,-165.43 193.52,-221.94 2.1,-3.19 2.23,-6.56 0.33,-9.04 -1.89,-2.48 -5.3,-3.37 -9.12,-2.4 -339.32,97.12 -605.95,-44.27 -998.5,62.01 -109.1,29.51 -201.51,84.84 -275.92,156.61 -216.94,209.16 -281.22,557.81 -160.81,814.1 35.11,74.75 85.89,141.64 153.2,194.91 213.95,169.3 537.09,161.86 713.24,-13.62zm-35.74 644.63l357.4 -1117.94c142.65,-4.63 296.77,14.63 413.15,104.22 369.09,284.29 72.35,1060.09 -770.55,1013.72z"/>
   </g>
   <path class="fil0" d="M1483.97 4779.98c-29.8,0 -69.07,-7.1 -117.83,-21.3 -48.8,-14.14 -94.89,-44.29 -138.37,-90.33 -43.5,-46.04 -65.25,-112.44 -65.25,-199.31 0,-49.23 11.94,-100.17 35.85,-152.87 23.93,-52.74 58.72,-96.9 104.4,-132.51 45.66,-35.61 99.22,-53.38 160.73,-53.38 23.6,0 44.6,2.31 62.88,6.91 18.36,4.68 39.64,12.21 63.85,22.62 11.19,4.6 20.82,6.91 28.91,6.91 8.06,0 16.15,-1.99 24.21,-6.07 8.1,-4.02 17.07,-10.43 27.03,-19.06l37.27 143.28 1.85 9.6c0,1.72 -0.59,2.99 -1.85,3.9 -1.25,0.87 -2.8,1.89 -4.68,3.05 -1.83,1.16 -4.01,1.74 -6.51,1.74 -4.96,0 -8.7,-2.05 -11.19,-6.1 -21.11,-28.37 -40.36,-51.56 -57.75,-69.49 -17.4,-17.94 -39.79,-33.43 -67.11,-46.47 -27.33,-13.02 -59.63,-19.54 -96.92,-19.54 -59,0 -104.66,20.56 -136.96,61.67 -32.33,41.11 -53.89,85.28 -64.78,132.47 -10.87,47.17 -16.33,84.95 -16.33,113.35 0,78.75 16.47,138.83 49.41,180.21 32.92,41.42 67.71,68.31 104.36,80.79 36.69,12.47 66.48,18.67 89.48,18.67 40.98,0 72.5,-8.69 94.56,-26.03 22.07,-17.38 36.51,-37.97 43.37,-61.67 6.81,-23.78 10.22,-43.73 10.22,-59.97 0,-4.6 -0.61,-12.15 -1.83,-22.56 -1.27,-9.28 -3.9,-17.4 -7.93,-24.31 -4.05,-6.94 -12.72,-13.02 -26.08,-18.28 -13.37,-5.17 -32.77,-7.78 -58.26,-7.78 -3.09,0 -5.13,-1.02 -6.06,-3.07 -0.93,-1.99 -1.38,-5.06 -1.38,-9.09 0,-8.1 2.5,-12.21 7.44,-12.21l244.17 0c4.94,0 7.46,4.11 7.46,12.21 0,8.06 -2.52,12.15 -7.46,12.15 -21.75,0 -40.07,4.6 -55.01,13.85 -14.9,9.28 -23.61,22.32 -26.05,39.13 -1.27,8.12 -1.89,21.73 -1.89,40.8 0,30.69 0.93,70.38 2.8,119.05 -3.75,-0.59 -9.01,-0.91 -15.86,-0.91 -14.9,0 -29.19,1.59 -42.83,4.79 -13.67,3.2 -32.01,7.99 -54.99,14.31 -22.98,6.98 -42.42,12.21 -58.24,15.67 -15.83,3.44 -32.75,5.19 -50.81,5.19z"/>
   <path class="fil0" d="M2199.1 4780.87c-48.44,0 -96.14,-12.59 -143.01,-37.78 -46.91,-25.18 -85.58,-62.39 -116.04,-111.61 -30.44,-49.22 -45.66,-107.99 -45.66,-176.33 0,-67.75 15.22,-126.24 45.66,-175.46 30.46,-49.23 69.13,-86.43 116.04,-111.63 46.87,-25.19 94.57,-37.78 143.01,-37.78 48.48,0 96.01,12.59 142.57,37.78 46.62,25.2 85.13,62.39 115.56,111.63 30.46,49.22 45.68,107.71 45.68,175.46 0,68.33 -15.22,127.11 -45.68,176.33 -30.44,49.22 -68.94,86.43 -115.56,111.61 -46.57,25.19 -94.1,37.78 -142.57,37.78zm0 -28.66c37.31,0 72.56,-11.17 105.78,-33.48 33.22,-22.24 60.25,-55.88 81.07,-100.74 20.82,-44.88 31.23,-99.15 31.23,-162.83 0,-63.15 -10.41,-116.98 -31.23,-161.6 -20.82,-44.56 -47.85,-77.99 -81.07,-100.29 -33.22,-22.32 -68.47,-33.45 -105.78,-33.45 -37.27,0 -72.67,11.13 -106.23,33.45 -33.54,22.3 -60.56,55.73 -81.06,100.29 -20.48,44.61 -30.76,98.45 -30.76,161.6 0,63.68 10.28,117.95 30.76,162.83 20.5,44.86 47.51,78.5 81.06,100.74 33.56,22.31 68.96,33.48 106.23,33.48z"/>
   <path class="fil0" d="M2655.19 4768.72c-2.48,0 -4.17,-1.02 -5.11,-3.07 -0.95,-2.04 -1.4,-5.04 -1.4,-9.09 0,-8.69 2.18,-13.04 6.51,-13.04l14.92 0c28.58,0 49.08,-3.9 61.52,-11.76 12.42,-7.78 18.61,-21.86 18.61,-42.13l0 -472.48c0,-20.28 -6.53,-34.45 -19.55,-42.57 -13.06,-8.1 -33.24,-12.15 -60.57,-12.15l-14.92 0c-4.33,0 -6.51,-4.09 -6.51,-12.21 0,-8.1 2.18,-12.13 6.51,-12.13l264.67 0c3.09,0 5.11,1.02 6.06,3.07 0.93,1.99 1.38,5.06 1.38,9.07 0,8.12 -2.48,12.21 -7.44,12.21l-13.97 0c-28,0 -48.5,4.17 -61.54,12.59 -13.02,8.41 -19.57,22.45 -19.57,42.14l0 472.48c0,19.7 6.38,33.2 19.12,40.41 12.74,7.21 33.37,11.45 61.99,12.59l21.41 0.89 37.25 -0.89c54.69,-1.13 99.09,-12.85 133.28,-35.15 34.15,-22.3 65.53,-52.3 94.11,-89.9 1.85,-2.93 4.35,-4.39 7.46,-4.39 1.85,0 4.65,0.89 8.37,2.61 5,2.31 7.46,5.24 7.46,8.69l-0.93 4.35c-11.8,30.12 -20.82,52.09 -27.03,66.04l-28.87 73.83 -503.22 0z"/>
   <path class="fil0" d="M3359.15 4768.72c-4.96,0 -7.46,-4.09 -7.46,-12.15 0,-8.12 2.5,-12.21 7.46,-12.21l14.92 0c27.96,0 48.13,-3.88 60.57,-11.68 12.4,-7.82 18.61,-21.86 18.61,-42.14l0 -473.38c0,-20.9 -6.21,-35.23 -18.61,-43.01 -12.44,-7.82 -32.61,-11.72 -60.57,-11.72l-14.92 0c-4.35,0 -6.53,-4.09 -6.53,-12.21 0,-8.1 2.18,-12.13 6.53,-12.13l104.36 -0.89c67.08,0 123.65,0.89 169.63,2.61 58.98,2.31 113.82,14.2 164.46,35.61 50.64,21.46 91.92,55.16 123.95,101.2 31.95,46.04 47.97,104.96 47.97,176.76 0,71.27 -16.02,129.89 -47.97,175.93 -32.03,46.02 -73.31,79.92 -123.95,101.63 -50.63,21.67 -105.47,33.69 -164.46,36 -41.02,1.78 -92.26,2.61 -153.78,2.61l-120.2 -0.83zm256.26 -26.09c36.04,0 74.39,-8.12 115.07,-24.28 40.7,-16.22 76.42,-45.91 107.16,-89.05 30.76,-43.16 46.11,-101.76 46.11,-175.93 0,-74.66 -15.35,-133.6 -46.11,-176.76 -30.74,-43.14 -66.46,-72.63 -107.16,-88.59 -40.68,-15.94 -79.03,-23.85 -115.07,-23.85l-7.44 0c-28.6,0 -48.95,4.01 -61.05,12.15 -12.13,8.1 -18.17,22.3 -18.17,42.57l0 469.9c0,19.7 6.04,33.58 18.17,41.7 12.09,8.1 32.44,12.13 61.05,12.13l7.44 0z"/>
   <path class="fil0" d="M4690.24 4614.98c5.6,1.74 8.37,5.17 8.37,10.43 0,1.72 -1.54,6.32 -4.66,13.85 -16.75,39.39 -34.17,82.55 -52.17,129.46l-517.17 0c-4.35,0 -6.53,-4.09 -6.53,-12.15 0,-8.12 2.18,-12.21 6.53,-12.21l14.9 0c27.96,0 48.31,-4.17 61.03,-12.59 12.76,-8.37 19.1,-22.43 19.1,-42.13l0 -472.48c0,-20.28 -6.65,-34.45 -20.03,-42.57 -13.37,-8.1 -33.39,-12.15 -60.1,-12.15l-14.9 0c-4.35,0 -6.53,-4.09 -6.53,-12.21 0,-8.1 2.18,-12.13 6.53,-12.13l488.26 0c10.56,17.4 21.62,35.61 33.09,54.72 11.51,19.12 19.74,33.56 24.7,43.41 0.61,1.19 0.93,2.61 0.93,4.35 0,2.93 -2.5,5.81 -7.44,8.69 -1.87,1.15 -4.37,1.72 -7.48,1.72 -3.73,0 -6.83,-1.16 -9.31,-3.46 -27.31,-25.44 -60.57,-45.91 -99.72,-61.24 -39.15,-15.33 -81.36,-23.02 -126.73,-23.02l-23.27 0c-25.5,0 -45.07,1.04 -58.74,3.07 -13.65,1.99 -24.51,6.8 -32.61,14.35 -8.08,7.52 -12.11,19.69 -12.11,36.48l0 210.19 83.87 0c37.9,0 62.75,-0.32 74.54,-0.89 26.11,-0.57 46.45,-8.69 61.05,-24.28 14.61,-15.68 21.9,-35.36 21.9,-59.08 0,-4.09 4.05,-6.08 12.1,-6.08 4.35,0 7.63,0.4 9.8,1.29 2.18,0.89 3.24,2.48 3.24,4.79l0 198.87c0,4.68 -4.33,6.98 -13.04,6.98 -8.05,0 -12.1,-2.31 -12.1,-6.98 0,-23.7 -7.29,-43.39 -21.9,-59.06 -14.59,-15.6 -34.94,-23.7 -61.05,-24.29 -11.79,-0.57 -36.65,-0.91 -74.54,-0.91l-83.87 0 0 231.93c0,19.7 6.53,33.31 19.57,40.87 13.04,7.54 33.26,11.87 60.57,13.02 8.08,0.59 22.05,0.83 41.95,0.83 14.91,0 25.78,-0.25 32.61,-0.83 38.5,-2.93 71.44,-10.41 98.76,-22.62 27.33,-12.15 49.88,-26.2 67.57,-42.12 17.68,-15.94 37.44,-36.63 59.15,-62.07 1.87,-2.33 4.34,-3.52 7.44,-3.52 1.89,0 4.68,0.62 8.43,1.78z"/>
   <path class="fil0" d="M4827.63 4768.72c-3.75,0 -5.62,-4.33 -5.62,-13.02 0,-7.56 1.87,-11.34 5.62,-11.34l14.89 0c19.9,0 38.07,-6.65 54.5,-19.93 16.47,-13.37 24.7,-29.87 24.7,-49.56l0 -458.6c0,-19.69 -6.21,-33.56 -18.63,-41.69 -12.42,-8.1 -32.61,-12.15 -60.57,-12.15l-14.89 0c-4.35,0 -6.53,-4.09 -6.53,-12.21 0,-8.1 2.18,-12.13 6.53,-12.13l164.93 0 373.67 491.65 0 -397.82c0,-12.78 -4.2,-24.48 -12.57,-35.23 -8.39,-10.68 -18.97,-19.1 -31.71,-25.18 -12.72,-6.07 -24.97,-9.09 -36.8,-9.09l-13.97 0c-3.12,0 -5.11,-1.02 -6.04,-3.05 -0.94,-2.06 -1.4,-5.05 -1.4,-9.16 0,-8.1 2.44,-12.13 7.44,-12.13l225.52 0c3.11,0 5.09,1.02 6.02,3.07 0.96,1.99 1.42,5.06 1.42,9.07 0,8.12 -2.5,12.21 -7.44,12.21l-14.95 0c-19.84,0 -38.01,6.8 -54.5,20.41 -16.47,13.61 -24.7,29.96 -24.7,49.08l0 536.8 -22.34 0 -421.2 -560.25 0 466.4c0,19.69 8.69,36.19 26.11,49.56 17.37,13.29 35.72,19.93 54.97,19.93l14.88 0c4.35,0 6.53,3.78 6.53,11.34 0,8.69 -2.18,13.02 -6.53,13.02l-227.34 0z"/>
   <path class="fil0" d="M1946.6 5678.41c-4.96,0 -7.46,-4.04 -7.46,-12.15 0,-8.12 2.5,-12.13 7.46,-12.13l14.9 0c28,0 48.16,-3.9 60.59,-11.72 12.4,-7.86 18.61,-21.87 18.61,-42.14l0 -473.43c0,-20.84 -6.21,-35.15 -18.61,-42.97 -12.44,-7.85 -32.6,-11.76 -60.59,-11.76l-14.9 0c-4.35,0 -6.53,-4.01 -6.53,-12.15 0,-8.12 2.18,-12.13 6.53,-12.13l104.38 -0.91c67.08,0 123.63,0.91 169.61,2.63 59,2.29 113.82,14.2 164.46,35.61 50.62,21.41 91.92,55.18 123.95,101.2 31.97,46.02 47.97,104.98 47.97,176.76 0,71.21 -16,129.83 -47.97,175.91 -32.03,46.04 -73.33,79.92 -123.95,101.59 -50.63,21.73 -105.45,33.75 -164.46,36.04 -41.02,1.74 -92.26,2.63 -153.78,2.63l-120.2 -0.89zm256.28 -26.03c36.02,0 74.37,-8.12 115.06,-24.34 40.68,-16.19 76.4,-45.9 107.16,-89 30.76,-43.14 46.13,-101.76 46.13,-175.91 0,-74.68 -15.37,-133.61 -46.13,-176.76 -30.76,-43.16 -66.48,-72.69 -107.16,-88.61 -40.68,-15.9 -79.03,-23.85 -115.06,-23.85l-7.46 0c-28.6,0 -48.95,4.05 -61.05,12.15 -12.11,8.06 -18.17,22.26 -18.17,42.57l0 469.87c0,19.7 6.06,33.64 18.17,41.74 12.09,8.06 32.44,12.15 61.05,12.15l7.46 0z"/>
   <path class="fil0" d="M3337.32 5654.12c4.35,0 6.53,3.77 6.53,11.3 0,8.69 -2.18,12.99 -6.53,12.99l-161.18 0c-24.89,-41.7 -57.19,-94.25 -96.94,-157.65 -39.73,-63.41 -72.35,-112.21 -97.86,-146.32 -17.38,1.15 -30.44,1.72 -39.13,1.72l-60.57 0 0 223.24c0,20.25 6.7,34.45 20.05,42.57 13.36,8.1 33.39,12.15 60.1,12.15l14.94 0c4.31,0 6.49,3.77 6.49,11.3 0,8.69 -2.18,12.99 -6.49,12.99l-264.65 0c-4.35,0 -6.51,-4.04 -6.51,-12.15 0,-8.12 2.16,-12.13 6.51,-12.13l14.9 0c27.96,0 48.31,-4.05 61.03,-12.15 12.74,-8.12 19.1,-22.32 19.1,-42.57l0 -472.56c0,-20.27 -6.83,-34.45 -20.48,-42.57 -13.67,-8.06 -33.86,-12.15 -60.57,-12.15l-14.9 0c-4.35,0 -6.53,-4.01 -6.53,-12.15 0,-8.12 2.18,-12.13 6.53,-12.13l214.31 -0.91 84.81 0c39.75,0.59 76.53,7.42 110.39,20.41 33.89,13.04 61.05,31.89 81.55,56.5 20.52,24.61 30.74,53.13 30.74,85.54 0,38.8 -16,70.81 -47.97,96.01 -32.01,25.18 -73.48,44.11 -124.42,56.88 17.39,21.43 50.63,69.19 99.72,143.28 40.4,59.65 63.66,93.85 69.89,102.54 10.56,13.85 24.08,25.04 40.55,33.43 16.47,8.37 38.67,12.61 66.61,12.61zm-427.73 -302.32c88.87,0 150.64,-13.87 185.45,-41.68 34.79,-27.75 52.17,-62.79 52.17,-105.09 0,-47.5 -18.17,-81.32 -54.5,-101.63 -36.36,-20.27 -80.58,-30.36 -132.79,-30.36 -23.61,0 -42.57,3.31 -56.83,9.96 -14.29,6.65 -21.46,21.3 -21.46,43.86l0 224.96 27.96 0z"/>
   <path class="fil0" d="M3757.95 5690.6c-48.42,0 -96.12,-12.59 -142.99,-37.78 -46.93,-25.18 -85.6,-62.39 -116.04,-111.61 -30.42,-49.22 -45.68,-108.03 -45.68,-176.37 0,-67.71 15.26,-126.2 45.68,-175.42 30.44,-49.24 69.11,-86.43 116.04,-111.63 46.87,-25.2 94.57,-37.78 142.99,-37.78 48.5,0 96.03,12.59 142.61,37.78 46.6,25.19 85.09,62.39 115.52,111.63 30.46,49.22 45.68,107.71 45.68,175.42 0,68.33 -15.22,127.15 -45.68,176.37 -30.44,49.22 -68.92,86.43 -115.52,111.61 -46.59,25.2 -94.12,37.78 -142.61,37.78zm0 -28.7c37.31,0 72.57,-11.11 105.8,-33.43 33.22,-22.3 60.27,-55.86 81.06,-100.74 20.82,-44.88 31.24,-99.15 31.24,-162.89 0,-63.09 -10.41,-116.98 -31.24,-161.54 -20.78,-44.61 -47.83,-78.04 -81.06,-100.31 -33.22,-22.3 -68.48,-33.45 -105.8,-33.45 -37.23,0 -72.67,11.15 -106.21,33.45 -33.56,22.26 -60.56,55.69 -81.07,100.31 -20.48,44.56 -30.72,98.45 -30.72,161.54 0,63.74 10.24,118.01 30.72,162.89 20.52,44.88 47.51,78.44 81.07,100.74 33.54,22.32 68.98,33.43 106.21,33.43z"/>
   <path class="fil0" d="M4510.39 5047.83c39.13,0.59 75.64,7.67 109.47,21.28 33.87,13.61 61.22,32.86 82.02,57.73 20.8,24.93 31.19,54.14 31.19,87.76 0,62.54 -22.81,105.81 -68.46,129.85 -45.68,24.04 -103.93,38.35 -174.72,43.01 -8.1,0.57 -25.8,0.83 -53.11,0.83l-53.13 0 0 211.1c0,20.25 6.22,34.45 18.63,42.57 12.44,8.1 32.94,12.15 61.54,12.15l14.9 0c4.33,0 6.51,3.77 6.51,11.3 0,8.69 -2.18,12.99 -6.51,12.99l-264.65 0c-4.35,0 -6.53,-4.04 -6.53,-12.15 0,-8.12 2.18,-12.13 6.53,-12.13l14.9 0c26.75,0 46.78,-4.05 60.1,-12.15 13.36,-8.12 20.03,-22.32 20.03,-42.57l0 -472.56c0,-19.69 -6.5,-33.69 -19.54,-42.13 -13.06,-8.37 -33.26,-12.59 -60.59,-12.59l-14.9 0c-4.35,0 -6.53,-4.01 -6.53,-12.15 0,-8.12 2.18,-12.13 6.53,-12.13l195.69 0 100.65 0zm-54.04 315.29c69.59,-0.59 118.63,-14.46 147.23,-41.69 28.55,-27.24 42.86,-63.98 42.86,-110.34 0,-59.08 -20.67,-96.98 -61.98,-113.78 -41.32,-16.77 -82.76,-25.2 -124.42,-25.2 -50.92,0 -76.4,18.29 -76.4,54.72l0 236.28 32.59 0 40.11 0z"/>
   <path class="fil0" d="M4885.44 5194.84c-14.18,0 -26.67,-3.2 -37.56,-9.54 -10.87,-6.38 -19.44,-15.09 -25.65,-26.22 -6.26,-11.11 -9.37,-23.67 -9.37,-37.59 0,-14.16 3.11,-26.75 9.37,-37.75 6.21,-11.02 14.78,-19.74 25.65,-26.2 10.89,-6.49 23.38,-9.71 37.56,-9.71 14.2,0 26.67,3.22 37.43,9.71 10.75,6.46 19.23,15.18 25.46,26.2 6.24,11 9.35,23.59 9.35,37.75 0,13.93 -3.11,26.48 -9.35,37.59 -6.23,11.13 -14.71,19.83 -25.46,26.22 -10.75,6.34 -23.23,9.54 -37.43,9.54zm15.79 -34.47l-23.45 -36.29 17.21 0 24.93 36.29 -18.69 0zm-15.79 22.36c12,0 22.39,-2.63 31.18,-7.89 8.78,-5.22 15.64,-12.51 20.54,-21.79 4.87,-9.3 7.33,-19.8 7.33,-31.56 0,-11.94 -2.46,-22.55 -7.33,-31.71 -4.9,-9.16 -11.76,-16.37 -20.54,-21.63 -8.78,-5.22 -19.17,-7.86 -31.18,-7.86 -11.94,0 -22.41,2.63 -31.35,7.86 -8.91,5.26 -15.82,12.47 -20.71,21.63 -4.87,9.16 -7.33,19.76 -7.33,31.71 0,11.76 2.46,22.26 7.33,31.56 4.89,9.28 11.8,16.56 20.71,21.79 8.94,5.26 19.4,7.89 31.35,7.89zm-28.58 -22.36l0 -78.84 34.09 0c8.08,0 14.5,2.14 19.25,6.42 4.77,4.3 7.16,10.11 7.16,17.43 0,7.33 -2.39,13.12 -7.16,17.41 -4.75,4.26 -11.17,6.42 -19.25,6.42l-18.32 0 0 31.16 -15.77 0zm15.77 -44.37l17.24 0c3.39,0 6.21,-0.78 8.41,-2.37 2.2,-1.59 3.31,-4.22 3.31,-7.89 0,-3.41 -1.12,-5.93 -3.31,-7.51 -2.2,-1.59 -5.02,-2.41 -8.41,-2.41l-17.24 0 0 20.18z"/>
  </g>
 </g>
</svg>
