<?xml version="1.0" encoding="UTF-8"?>
<!DOCTYPE svg PUBLIC "-//W3C//DTD SVG 1.1//EN" "http://www.w3.org/Graphics/SVG/1.1/DTD/svg11.dtd">
<!-- Creator: CorelDRAW -->
<svg xmlns="http://www.w3.org/2000/svg" xml:space="preserve" width="6.66666in" height="6.66666in" version="1.1" style="shape-rendering:geometricPrecision; text-rendering:geometricPrecision; image-rendering:optimizeQuality; fill-rule:evenodd; clip-rule:evenodd"
viewBox="0 0 6666.66 6666.66"
 xmlns:xlink="http://www.w3.org/1999/xlink"
 xmlns:xodm="http://www.corel.com/coreldraw/odm/2003">
 <defs>
  <style type="text/css">
   <![CDATA[
    .fil1 {fill:#DECDA2}
    .fil0 {fill:#DECDA2;fill-rule:nonzero}
    .fil2 {fill:#DECDA2;fill-rule:nonzero}
   ]]>
  </style>
 </defs>
 <g id="Layer_x0020_1">
  <metadata id="CorelCorpID_0Corel-Layer"/>
  <g id="_2808474115424">
   <path class="fil0" d="M1385.76 2131.9c-10.35,20.15 -28.71,40.85 -55.15,62.07 -26.41,21.24 -58.78,35.27 -97.07,42.11 -38.31,6.82 -78.98,-0.8 -121.96,-22.88 -27.19,-13.98 -53.09,-35.05 -77.67,-63.18 -24.6,-28.13 -41,-61.07 -49.18,-98.81 -8.2,-37.76 -2.03,-76.6 18.5,-116.54 5.71,-11.08 11.93,-20.51 18.67,-28.3 6.78,-7.76 15.19,-16.06 25.26,-24.91 10.23,-10.01 16.64,-17.54 19.23,-22.57 2.59,-5.03 4.09,-10.43 4.48,-16.18 0.39,-5.71 -0.7,-12.65 -3.31,-20.78 13.64,3.17 30.35,7.4 50.14,12.7 19.79,5.27 35.22,9.53 46.34,12.67l5.03 1.31c1.35,0.7 2.01,2.32 1.96,4.86 0.36,1.02 0.15,2.18 -0.53,3.53 -1.04,2.01 -3,3.34 -5.85,3.99 -21.82,2.8 -40.83,6.48 -57.01,11.15 -16.16,4.62 -31.95,12.43 -47.33,23.39 -15.41,10.98 -28.23,26.37 -38.39,46.17 -15.72,30.55 -15.79,60.01 -0.22,88.39 15.56,28.37 35.99,52.03 61.24,70.97 25.3,18.91 48.19,33.67 68.67,44.19 25.83,13.28 53.94,21.57 84.3,24.89 30.35,3.26 57.78,0.92 82.26,-7.09 24.48,-7.98 41.48,-21.21 50.96,-39.69 11.39,-22.15 15.21,-41.41 11.54,-57.74 -3.7,-16.33 -12,-29.73 -24.89,-40.15 -9.02,-8.05 -19.93,-15.36 -32.68,-21.91 -4.69,-2.42 -10.26,-4.84 -16.64,-7.28 -9.58,-3.63 -18.8,-3.7 -27.57,-0.17 -8.85,3.53 -18.31,15.19 -28.52,35 -1.38,2.71 -4.09,3.02 -8.1,0.94 -3.7,-1.89 -4.86,-4.21 -3.48,-6.89l79.99 -155.63c1.21,-2.35 3.65,-2.56 7.35,-0.68 4.04,2.08 5.44,4.31 4.23,6.65 -6.22,12.07 -8.76,23.61 -7.62,34.61 1.16,10.98 6.6,19.81 16.3,26.51 4.35,3.1 12.07,7.5 23.15,13.19 17.8,9.14 41.24,20.54 70.29,34.18l-4.93 9.58c-6.22,12.09 -10.72,23.15 -13.52,33.16 -2.83,10.04 -5.49,22.44 -8.01,37.28 -2.18,13.33 -4.59,25.03 -7.23,35.12 -2.64,10.09 -6.99,21.02 -13.04,32.78zm280.53 -427.91c-20.78,23.94 -47.43,42.04 -80.01,54.26 -32.58,12.26 -67.63,15.19 -105.15,8.93 -37.52,-6.29 -73.39,-24.29 -107.64,-53.96 -34.23,-29.68 -57.11,-62.62 -68.67,-98.88 -11.54,-36.23 -13.57,-71.33 -6.07,-105.34 7.48,-33.98 21.58,-62.94 42.35,-86.91 20.78,-23.94 47.39,-41.99 79.87,-54.09 32.46,-12.07 67.44,-14.97 104.93,-8.66 37.54,6.29 73.39,24.26 107.61,53.94 34.25,29.68 57.15,62.65 68.69,98.88 11.54,36.23 13.64,71.28 6.29,105.12 -7.37,33.84 -21.45,62.74 -42.21,86.71zm-13.25 -11.49c14.58,-16.83 22.11,-36.79 22.64,-59.82 0.48,-23.07 -6.99,-48.3 -22.47,-75.69 -15.46,-27.41 -39.33,-55.07 -71.55,-83.01 -32.24,-27.94 -63.06,-47.7 -92.52,-59.24 -29.46,-11.56 -55.56,-15.45 -78.32,-11.68 -22.76,3.75 -41.29,13.91 -55.63,30.45 -14.59,16.83 -22.2,36.84 -22.81,60.01 -0.63,23.22 6.85,48.45 22.45,75.69 15.6,27.26 39.64,54.98 72.18,83.18 32.22,27.94 62.94,47.7 92.13,59.26 29.17,11.56 55.15,15.48 77.91,11.7 22.71,-3.75 41.41,-14.05 56,-30.86zm235.93 -241.96c-1.21,0.87 -2.37,1.02 -3.51,0.41 -1.11,-0.61 -2.44,-1.96 -3.96,-4.11 -2.66,-3.7 -2.88,-6.31 -0.72,-7.83l6 -4.28c11.69,-8.32 19.26,-17.54 22.71,-27.67 3.46,-10.09 0.02,-22.37 -10.26,-36.81l-173.48 -243.5c-10.3,-14.46 -20.85,-21.65 -31.71,-21.57 -10.83,0.07 -21.94,4.16 -33.31,12.26l-6.02 4.28c-1.21,0.87 -2.4,1.02 -3.51,0.44 -1.11,-0.61 -2.44,-1.98 -3.99,-4.14 -2.39,-3.39 -2.54,-5.85 -0.39,-7.38l149.89 -106.79c2.15,-1.53 4.55,-0.46 7.19,3.24 1.33,1.84 2.06,3.39 2.27,4.64 0.19,1.26 -0.34,2.32 -1.57,3.19l-5.52 3.94c-11.69,8.32 -19.28,17.68 -22.79,28.03 -3.5,10.38 -0.22,22.64 9.87,36.79l177.42 249.04c7.89,11.08 16.45,16.08 25.69,15.09 9.24,-1.04 21.26,-6.12 36.04,-15.26l10.5 -6.8 13.5 -10.3c26.39,-20.2 43.66,-44.43 51.78,-72.71 8.13,-28.28 12.26,-57.96 12.34,-89.09 0.12,-2.39 0.82,-4.06 2.03,-4.93 1.26,-0.87 2.64,-1.19 4.21,-0.92 3.36,-0.51 5.44,-0.14 6.31,1.07l1.21 2.63c1.4,4.57 4.26,15.75 8.59,33.53 8.85,32.61 15.74,57.59 20.7,74.93l-267.52 190.58zm407.33 -282.35c-1.38,0.56 -2.56,0.43 -3.53,-0.41 -0.92,-0.85 -1.89,-2.49 -2.85,-4.96 -1.55,-3.87 -1.06,-6.29 1.38,-7.26l6.87 -2.71c13.33,-5.3 22.88,-12.43 28.66,-21.41 5.78,-9 5.4,-21.72 -1.13,-38.24l-110.32 -278.48c-6.56,-16.52 -14.97,-26.05 -25.35,-28.66 -10.35,-2.56 -22.23,-1.24 -35.56,4.04l-6.85 2.73c-2.47,0.97 -4.59,-0.82 -6.41,-5.37 -1.52,-3.87 -1.06,-6.31 1.4,-7.28l99.3 -39.94c39.67,-15.7 66.11,-25.78 79.41,-30.23 30.02,-10.28 61.94,-14.2 95.81,-11.78 33.87,2.44 65.96,14.07 96.37,34.9 30.38,20.87 54.18,53.05 71.43,96.58 17.1,43.15 21.72,82.75 13.88,118.76 -7.88,36.02 -23.31,66.47 -46.34,91.43 -22.98,24.96 -48.96,43.98 -77.86,57.06 -11.9,5.9 -36.94,16.45 -75.2,31.61 -31.59,12.51 -65.96,25.71 -103.09,39.6zm158.56 -81.06c19.28,-7.65 36.55,-20.2 51.79,-37.59 15.24,-17.41 24.45,-42.09 27.65,-73.99 3.19,-31.9 -4.33,-70.87 -22.54,-116.83 -18.36,-46.32 -39.62,-80.06 -63.81,-101.11 -24.17,-21.09 -47.77,-32.75 -70.8,-35 -23.03,-2.25 -44.19,0.43 -63.5,8.08l-3.68 1.45c-16.16,6.41 -26.48,13.35 -31.03,20.85 -4.57,7.5 -4.4,17.37 0.46,29.63l114.92 290.11c5,12.63 11.68,20.03 20.07,22.2 8.37,2.15 20.63,0.05 36.77,-6.36l3.7 -1.45zm682.54 -277.08c2.83,0.65 4.47,2.44 5,5.42 0.27,1.5 0.17,3.05 -0.31,4.67 -0.46,1.62 -0.77,3.02 -0.96,4.19l-11.42 61.34 -7.35 42.16 -329.37 59.24c-2.98,0.53 -4.91,-1.6 -5.78,-6.43 -0.75,-4.09 0.39,-6.41 3.36,-6.94l6.7 -1.21c14.1,-2.54 24.87,-7.74 32.29,-15.57 7.4,-7.86 9.53,-20.51 6.39,-37.98l-52.92 -294.28c-3.15,-17.46 -9.6,-28.47 -19.45,-33.04 -9.84,-4.55 -21.63,-5.59 -35.36,-3.12l-6.7 1.21c-2.98,0.54 -4.91,-1.62 -5.78,-6.43 -0.73,-4.11 0.41,-6.41 3.39,-6.96l315.99 -56.82c9.7,11.3 19.67,23.49 29.9,36.62 10.21,13.13 17.61,22.74 22.13,28.83l0.96 2.11c0.27,1.5 -0.72,3.41 -3,5.73 -1.33,0.99 -2.59,1.62 -3.7,1.81 -1.86,0.34 -3.65,-0.12 -5.42,-1.33 -18.48,-13.16 -42.16,-23.78 -71.02,-31.81 -28.88,-8.05 -56.7,-9.65 -83.43,-4.86l-10.59 1.91c-15.24,2.73 -26.92,5.52 -35.05,8.32 -8.13,2.81 -14.17,7.04 -18.14,12.75 -3.97,5.71 -4.96,13.93 -3.02,24.7l24.74 137.68 45.14 -8.13c20.46,-3.68 34.15,-6.33 41.17,-7.96 15.92,-3.27 27.41,-11.18 34.57,-23.75 7.11,-12.63 9.41,-25.98 6.87,-40.11 -0.46,-2.59 1.72,-4.33 6.56,-5.2 2.59,-0.48 4.4,-0.51 5.44,-0.09 1.02,0.39 1.69,1.31 1.96,2.78l23.34 129.87c0.27,1.5 -0.02,2.59 -0.85,3.34 -0.82,0.7 -2.54,1.31 -5.13,1.77 -4.84,0.87 -7.5,0 -7.98,-2.59 -2.54,-14.13 -9.31,-25.76 -20.34,-34.88 -11.05,-9.14 -24.57,-12.46 -40.63,-9.96 -7.14,0.92 -20.9,3.19 -41.34,6.87l-45.13 8.13 27.04 150.47c2.34,12.99 7.93,21.12 16.74,24.31 8.85,3.22 21.91,3.85 39.19,1.89 3.8,-0.31 9.56,-1.16 17.37,-2.56 7.81,-1.4 14.08,-2.73 18.87,-3.97 32.37,-7.71 58,-22.42 76.94,-44.02 18.94,-21.65 35.41,-46.76 49.44,-75.35 0.87,-1.72 2.2,-2.71 4.06,-3.05 1.5,-0.27 3.05,-0.15 4.65,0.31zm146.41 116.39c-2.25,-0.17 -3.19,-2.68 -2.81,-7.59 0.31,-4.13 1.6,-6.12 3.85,-5.95l5.64 0.44c12.43,0.94 23.99,-2.71 34.64,-10.98 10.69,-8.25 16.64,-20.49 17.87,-36.67l22.83 -297.56c-3.94,-12.8 -9.36,-22.47 -16.23,-29.07 -6.87,-6.58 -16.08,-11.27 -27.6,-14.05l-7.3 -1.11c-1.48,-0.51 -2.47,-1.23 -2.95,-2.2 -0.51,-0.99 -0.68,-2.61 -0.48,-4.89 0.34,-4.5 1.84,-6.68 4.48,-6.46l116.85 8.95 187.84 320.54 18.41 -239.97c1.21,-15.82 -2.93,-28.54 -12.41,-38.15 -9.48,-9.63 -20.44,-15.09 -32.82,-16.43l-5.66 -0.43c-2.61,-0.22 -3.77,-2.59 -3.43,-7.09 0.36,-4.52 1.86,-6.68 4.47,-6.48l131.56 10.09c2.63,0.22 3.8,2.59 3.46,7.09 -0.36,4.52 -1.86,6.68 -4.47,6.48l-6.8 -0.53c-12.43,-0.56 -23.9,3.19 -34.37,11.3 -10.45,8.08 -16.3,20.03 -17.51,35.85l-26.97 351.74 -35.58 -2.73 -211.28 -362.63 -21.43 279.5c-1.26,16.18 2.88,29.17 12.34,38.96 9.48,9.82 20.22,15.19 32.29,16.11l6.19 0.48c2.64,0.19 3.8,2.37 3.48,6.53 -0.39,4.89 -1.89,7.23 -4.52,7.01l-131.56 -10.09zm670.69 95.79c-1.38,-0.63 -2.08,-1.57 -2.15,-2.85 -0.02,-1.26 0.48,-3.09 1.57,-5.49 1.72,-3.8 3.8,-5.13 6.19,-4.04l6.72 3.05c13.06,5.93 24.84,7.84 35.31,5.78 10.47,-2.11 19.37,-11.2 26.7,-27.38l123.84 -272.75c7.33,-16.16 8.34,-28.85 3.02,-38.12 -5.35,-9.26 -14.54,-16.86 -27.6,-22.79l-6.72 -3.05c-2.4,-1.09 -2.59,-3.87 -0.56,-8.34 1.72,-3.8 3.78,-5.13 6.19,-4.04l97.67 43.73c38.87,17.66 64.48,29.68 76.89,36.16 28.25,14.46 53.24,34.71 75.01,60.78 21.77,26.05 35.68,57.23 41.77,93.58 6.07,36.36 -0.56,75.83 -19.91,118.48 -19.18,42.26 -44.46,73.07 -75.83,92.42 -31.39,19.35 -64.02,29.39 -97.98,30.14 -33.91,0.78 -65.63,-4.72 -95.13,-16.42 -12.5,-4.45 -37.47,-15.17 -74.96,-32.17 -30.91,-14.05 -64.27,-29.63 -100.07,-46.68zm168.43 57.81c18.89,8.56 39.91,12.29 63.01,11.17 23.1,-1.11 47.26,-11.61 72.42,-31.47 25.2,-19.86 48.01,-52.32 68.45,-97.36 20.61,-45.35 30.11,-84.08 28.47,-116.1 -1.62,-32.03 -9.6,-57.13 -23.97,-75.28 -14.37,-18.11 -31.01,-31.49 -49.9,-40.06l-3.6 -1.65c-15.82,-7.18 -28.01,-9.8 -36.55,-7.88 -8.54,1.93 -15.55,8.9 -21,20.94l-128.99 284.11c-5.61,12.36 -6.31,22.3 -2.06,29.85 4.26,7.52 14.3,14.87 30.09,22.06l3.63 1.65zm640.57 411.44c2.08,1.65 1.84,4.09 -0.75,7.35 -3.02,3.87 -5.59,4.96 -7.67,3.34l-100.11 -78.8c5.9,-29.46 12.7,-67.68 20.39,-114.72 7.72,-47.02 12.14,-84.73 13.33,-113.11l-1.76 -1.38 -29.37 -23.12 -86.86 110.37c-10.96,13.93 -14.95,26.17 -11.95,36.69 3.02,10.55 9.99,20.13 20.97,28.76l5.32 4.21c2.08,1.62 1.84,4.09 -0.72,7.35 -3.05,3.85 -5.59,4.96 -7.67,3.31l-142.85 -112.4c-2.06,-1.65 -1.6,-4.38 1.43,-8.25 2.59,-3.26 4.91,-4.06 6.99,-2.44l5.81 4.57c10.96,8.63 21.91,13.16 32.85,13.62 10.96,0.43 21.91,-6.31 32.87,-20.25l184.56 -234.53c10.98,-13.93 14.9,-26.1 11.78,-36.48 -3.12,-10.4 -10.16,-19.91 -21.12,-28.54l-5.81 -4.57c-2.08,-1.62 -1.62,-4.35 1.43,-8.22 2.81,-3.56 5.25,-4.52 7.33,-2.88 38.43,29.29 75,57.59 109.72,84.9l53.04 42.48c19.43,16.23 35.1,34.59 47.09,55.07 11.97,20.49 18.29,41.17 18.92,62.07 0.58,20.9 -5.76,39.79 -19.06,56.72 -16.11,20.46 -37.25,30.87 -63.44,31.15 -26.15,0.27 -54.01,-6.14 -83.55,-19.28 -0.19,14.25 -3.24,45.01 -9.14,92.2 -6.36,48.35 -9.92,81.56 -10.72,99.68 -0.85,10.83 -1.02,19.16 -0.46,24.84 0.56,5.73 2.95,11.83 7.2,18.31 4.28,6.46 11.61,13.81 21.99,21.96zm-96.15 -332.9l13.35 10.5c66.44,52.3 119.76,52.93 159.91,1.91 10.28,-13.06 16.42,-27.28 18.48,-42.74 2.08,-15.43 -0.27,-30.62 -7.04,-45.55 -6.72,-14.9 -17.68,-28.32 -32.8,-40.22 -11.88,-9.33 -22.71,-14.51 -32.51,-15.48 -9.8,-0.99 -18.77,3.72 -26.94,14.1l-92.44 117.48zm292.36 577.15c-19.59,-24.91 -32.34,-54.52 -38.17,-88.82 -5.88,-34.3 -2.15,-69.28 11.08,-104.93 13.28,-35.65 37.71,-67.48 73.31,-95.52 35.6,-28.01 72.27,-44.24 110.06,-48.76 37.78,-4.47 72.61,0.15 104.59,13.91 31.98,13.76 57.74,33.09 77.35,58 19.61,24.94 32.29,54.47 38.05,88.63 5.71,34.15 1.96,69.06 -11.3,104.71 -13.26,35.68 -37.69,67.48 -73.29,95.5 -35.61,28.01 -72.3,44.29 -110.08,48.76 -37.76,4.52 -72.56,-0.05 -104.39,-13.67 -31.86,-13.62 -57.59,-32.9 -77.21,-57.81zm13.79 -10.84c13.79,17.52 31.95,28.67 54.47,33.53 22.57,4.84 48.74,2.25 78.56,-7.76 29.82,-10.02 61.51,-28.23 95.01,-54.62 33.55,-26.37 58.75,-52.93 75.66,-79.68 16.91,-26.75 25.67,-51.64 26.27,-74.69 0.58,-23.07 -5.88,-43.18 -19.43,-60.4 -13.76,-17.49 -31.98,-28.76 -54.64,-33.72 -22.67,-5.01 -48.86,-2.42 -78.56,7.76 -29.7,10.16 -61.46,28.54 -95.3,55.17 -33.5,26.37 -58.71,52.8 -75.59,79.29 -16.86,26.46 -25.61,51.23 -26.2,74.28 -0.6,23.03 5.98,43.35 19.74,60.83zm653.69 291.4c9.36,24.33 14.68,48.55 15.87,72.69 1.21,24.11 -2.69,45.69 -11.66,64.68 -8.97,19.01 -23.63,33.11 -43.93,42.3 -24.38,11.08 -47.72,12.46 -69.95,4.11 -22.25,-8.37 -41.68,-21.94 -58.3,-40.71 -16.61,-18.8 -30.57,-39.28 -41.89,-61.51 -4.57,-9.12 -10.76,-22.28 -18.55,-39.45l-9.14 -20.12 -120.65 54.78c-16.13,7.33 -25.37,16.26 -27.6,26.83 -2.25,10.55 -0.43,22.35 5.49,35.41l2.83 6.19c1.09,2.42 -0.27,4.48 -4.06,6.19 -4.45,2.03 -7.23,1.86 -8.32,-0.56l-75.85 -167.07c-1.09,-2.39 0.61,-4.62 5.08,-6.65 3.78,-1.72 6.22,-1.38 7.31,1.04l3.05 6.7c5.78,12.72 13.43,21.79 22.93,27.21 9.51,5.44 22.35,4.47 38.48,-2.85l271.76 -123.36c16.13,-7.33 25.28,-16.23 27.35,-26.7 2.08,-10.5 0.17,-22.28 -5.76,-35.34l-3.05 -6.7c-1.09,-2.42 0.58,-4.62 5.06,-6.65 4.11,-1.89 6.72,-1.59 7.81,0.8l59.48 130.98 26.22 57.76zm-205.04 53.87c16.83,33.41 36.4,53.43 58.73,60.11 22.28,6.67 47.36,3.7 75.2,-8.95 19.59,-8.9 33.53,-21.14 41.8,-36.72 8.27,-15.55 12.02,-31.47 11.3,-47.72 -0.72,-16.23 -3.94,-30.55 -9.56,-42.91 -12.8,-28.2 -30.19,-37.3 -52.17,-27.31l-142.83 64.82 5.83 12.89 11.71 25.78z"/>
   <path class="fil0" d="M1262.73 4463.21c2.34,9.99 3.05,19.74 2.06,29.24 -0.97,9.51 -3.92,17.73 -8.78,24.67 -4.86,6.94 -11.59,11.63 -20.13,14.06 -15.63,4.43 -28.47,1.5 -38.51,-8.78 -10.09,-10.28 -17.8,-23.44 -23.1,-39.43 -1.09,-3.19 -2.59,-8.27 -4.55,-15.19l-2.88 -10.16 -52.58 14.88c-6.34,1.79 -10.21,4.64 -11.66,8.56 -1.45,3.89 -1.31,8.87 0.39,14.92l0.87 3.07c0.29,1.04 -0.44,1.81 -2.2,2.32 -1.91,0.54 -3.02,0.27 -3.31,-0.75l-19.5 -68.94c-0.29,-1.04 0.51,-1.84 2.42,-2.37 1.76,-0.51 2.8,-0.24 3.09,0.8l0.87 3.09c1.62,5.76 4.11,9.99 7.4,12.7 3.34,2.71 8.15,3.19 14.52,1.4l117.77 -33.33c6.19,-1.74 10.01,-4.62 11.51,-8.64 1.5,-3.99 1.41,-8.95 -0.26,-14.83l-0.87 -3.09c-0.29,-1.04 0.44,-1.81 2.2,-2.32 1.93,-0.53 3.05,-0.29 3.33,0.75l15.22 53c3.99,14.13 6.22,22.23 6.68,24.35zm-84.71 9.39c4.62,15.24 11.27,24.99 19.96,29.22 8.66,4.23 18.98,4.65 30.91,1.28 9.15,-2.59 15.7,-6.99 19.67,-13.21 3.97,-6.24 6.07,-12.65 6.34,-19.35 0.24,-6.68 -0.31,-12.53 -1.74,-17.54 -1.5,-5.3 -3.7,-9.41 -6.58,-12.34 -2.9,-2.9 -7.16,-3.58 -12.77,-1.98l-60.76 17.17 1.74 6.19c1.52,5.32 2.59,8.83 3.24,10.54zm0.09 266c-8.2,-20.97 -9.77,-38.19 -4.69,-51.69 5.08,-13.5 15.91,-23.48 32.43,-29.94l86.84 -33.98c6.12,-2.39 9.67,-5.63 10.62,-9.7 0.94,-4.09 0.31,-8.98 -1.91,-14.69l-1.09 -2.76c-0.39,-1.02 0.27,-1.84 1.98,-2.52 1.86,-0.72 2.97,-0.61 3.39,0.41l25.86 66.11c0.39,0.97 -0.34,1.84 -2.23,2.57 -1.72,0.68 -2.76,0.51 -3.14,-0.48l-1.09 -2.78c-2.22,-5.71 -5.08,-9.72 -8.54,-12.07 -3.46,-2.35 -8.27,-2.32 -14.39,0.07l-78.08 30.55c-14.54,5.68 -25.86,13.06 -34.01,22.06 -8.15,9.05 -9.17,21.38 -3.02,37.08 6.41,16.4 15.96,25.52 28.61,27.41 12.65,1.86 27.04,-0.34 43.15,-6.65l72.28 -28.28c5.73,-2.25 9.48,-5.95 11.32,-11.1 1.86,-5.15 1.91,-9.94 0.17,-14.37l-1.09 -2.78c-0.39,-0.99 0.26,-1.81 1.98,-2.49 1.86,-0.73 3,-0.61 3.39,0.39l19.83 50.7c0.26,0.7 0.22,1.26 -0.12,1.65 -0.34,0.39 -0.99,0.78 -2.01,1.16 -1.72,0.68 -2.81,0.44 -3.24,-0.7l-0.99 -2.56c-1.79,-4.57 -5.11,-8.13 -9.96,-10.67 -4.84,-2.54 -10.14,-2.71 -15.85,-0.46l-78.66 30.28c-18.09,7.09 -33.96,8.03 -47.6,2.83 -13.62,-5.17 -23.66,-16.04 -30.14,-32.58zm163.18 297.46c0.53,0.92 0,1.84 -1.57,2.78 -1.72,0.99 -2.85,1.02 -3.39,0.09l-23.9 -41.09c6.99,-11.15 15.26,-24.91 24.89,-41.29 9.6,-16.4 16.74,-29.66 21.46,-39.84l-1.96 -3.39 -7.62 -13.11 -50.02 29.07c-5.71,3.31 -8.71,7.11 -9.07,11.42 -0.34,4.26 0.97,8.98 3.97,14.13l1.62 2.78c0.53,0.92 0.02,1.86 -1.57,2.81 -1.72,0.99 -2.85,0.99 -3.39,0.07l-35.78 -61.54c-0.53,-0.94 0.05,-1.91 1.77,-2.9 1.59,-0.92 2.66,-0.92 3.19,0.02l1.62 2.78c3.07,5.3 6.56,8.8 10.38,10.54 3.89,1.77 8.64,0.97 14.34,-2.35l105.83 -61.48c5.71,-3.34 8.7,-7.11 9.07,-11.42 0.34,-4.26 -0.99,-8.95 -3.99,-14.13l-1.62 -2.78c-0.56,-0.94 -0.02,-1.86 1.57,-2.78 1.74,-1.02 2.85,-1.04 3.41,-0.12 9.87,16.4 19.28,32.27 28.2,47.63 5.85,10.06 9.97,17.32 12.36,21.77 4.96,8.8 8.13,17.92 9.5,27.31 1.38,9.36 0.61,18 -2.32,25.91 -2.95,7.89 -8.11,14 -15.53,18.31 -9.12,5.3 -18.7,6.07 -28.69,2.32 -9.96,-3.75 -19.47,-10.35 -28.5,-19.81 -2.61,6.48 -8.73,18.33 -18.36,35.63 -1.89,3.75 -4.74,9.19 -8.59,16.3 -3.85,7.09 -6.8,12.91 -8.93,17.51 -1.62,3.6 -2.73,6.6 -3.29,8.97 -0.58,2.37 -0.56,5.18 0.12,8.42 0.63,3.24 2.22,7.09 4.77,11.44zm17.05 -132.89c17.93,30.81 38.22,39.67 60.86,26.51 9.39,-5.47 14.85,-13.16 16.35,-23.05 1.5,-9.92 -0.78,-20.03 -6.75,-30.33 -3.07,-5.3 -6.34,-8.93 -9.75,-10.83 -3.39,-1.91 -7.55,-1.45 -12.46,1.4l-51.83 30.14 3.58 6.17zm149.36 310.72c0.31,1.26 -0.02,2.25 -1.02,2.93 -0.51,0.36 -1.74,0.75 -3.68,1.19 -12.17,2.9 -25.2,6.31 -39.09,10.21l-76.31 -109.19c-0.7,-0.99 -0.24,-2.06 1.38,-3.19 1.5,-1.06 2.64,-1.06 3.31,-0.07l1.72 2.44c3.51,5.03 7.26,8.25 11.25,9.65 3.99,1.43 8.66,0.27 14.08,-3.53l100.31 -70.1c5.42,-3.8 8.1,-7.81 8.1,-12.12 -0.02,-4.28 -1.74,-8.85 -5.15,-13.76l-1.72 -2.44c-0.7,-0.99 -0.24,-2.11 1.41,-3.24 1.5,-1.04 2.61,-1.07 3.31,-0.07l72.76 104.11c-2.49,5.27 -5.39,11.3 -8.73,18 -3.34,6.72 -5.27,10.38 -5.8,10.93 -0.17,0.29 -0.44,0.61 -0.8,0.85 -0.63,0.46 -1.45,0.34 -2.44,-0.27 -0.51,-0.19 -0.99,-0.6 -1.43,-1.23 -0.53,-0.75 -0.73,-1.45 -0.61,-2.1 1.74,-9.24 1.6,-19.52 -0.41,-30.82 -2.01,-11.32 -6.22,-21.53 -12.63,-30.67l-2.76 -3.96c-3.6,-5.15 -6.58,-8.93 -8.95,-11.42 -2.37,-2.44 -4.93,-3.92 -7.69,-4.41 -2.78,-0.48 -6,0.56 -9.63,3.07l-46.1 32.24 10.91 15.63c5.1,7.28 8.54,12.07 10.3,14.37 3.82,5.18 8.59,8.06 14.3,8.63 5.76,0.56 11.06,-0.85 15.94,-4.28 0.51,-0.34 0.99,-0.41 1.43,-0.17 0.46,0.24 0.94,0.77 1.48,1.52 1.14,1.62 1.26,2.73 0.39,3.36l-43.68 30.52c-0.87,0.61 -1.86,0.1 -3,-1.52 -0.53,-0.78 -0.85,-1.4 -0.92,-1.91 -0.07,-0.51 0.15,-0.92 0.65,-1.28 4.89,-3.41 8.08,-7.93 9.58,-13.57 1.48,-5.61 0.44,-11.07 -3.09,-16.44 -1.55,-2.47 -4.86,-7.35 -9.96,-14.61l-10.91 -15.63 -50.82 35.51c-4.41,3.07 -6.46,6.43 -6.24,10.09 0.22,3.7 2.15,8.56 5.8,14.59 0.94,1.59 2.47,3.89 4.57,6.92 1.94,2.73 3.53,4.91 4.79,6.46 5.93,7.4 12.53,12.99 19.81,16.69 7.23,3.7 14.22,6.12 20.88,7.23 6.7,1.14 14.22,1.84 22.64,2.13 0.75,0.02 1.43,0.41 1.94,1.19 0.26,0.36 0.46,0.89 0.56,1.57zm196.09 222.7c0.51,1.21 0.31,2.23 -0.56,3.07 -0.46,0.43 -1.6,0.99 -3.44,1.72 -11.59,4.72 -23.94,10.11 -37.08,16.06l-92.11 -96.22c-0.85,-0.87 -0.56,-2.01 0.87,-3.39 1.33,-1.28 2.44,-1.45 3.27,-0.58l2.08 2.18c4.23,4.4 8.44,7.01 12.58,7.81 4.16,0.8 8.61,-1.09 13.37,-5.63l88.43 -84.63c4.76,-4.57 6.8,-8.95 6.15,-13.21 -0.68,-4.23 -3.07,-8.49 -7.21,-12.8l-2.08 -2.18c-0.82,-0.87 -0.53,-2.03 0.9,-3.39 1.33,-1.28 2.44,-1.45 3.26,-0.58l87.83 91.75c-1.65,5.61 -3.6,12 -5.88,19.13 -2.25,7.13 -3.6,11.05 -4.06,11.68 -0.12,0.31 -0.34,0.65 -0.65,0.97 -0.56,0.53 -1.38,0.56 -2.46,0.09 -0.54,-0.12 -1.07,-0.46 -1.6,-1.02 -0.63,-0.65 -0.92,-1.3 -0.92,-1.96 0.31,-9.41 -1.41,-19.55 -5.11,-30.41 -3.72,-10.86 -9.46,-20.32 -17.17,-28.4l-3.34 -3.48c-4.33,-4.52 -7.86,-7.83 -10.59,-9.89 -2.71,-2.08 -5.46,-3.15 -8.27,-3.19 -2.81,-0.05 -5.83,1.45 -9.02,4.52l-40.66 38.9 13.18 13.76c6.15,6.41 10.28,10.62 12.39,12.63 4.55,4.55 9.72,6.65 15.46,6.33 5.76,-0.31 10.79,-2.52 15.09,-6.65 0.44,-0.41 0.9,-0.56 1.38,-0.36 0.48,0.14 1.04,0.6 1.67,1.26 1.38,1.43 1.69,2.52 0.92,3.26l-38.51 36.84c-0.78,0.73 -1.84,0.39 -3.19,-1.04 -0.65,-0.68 -1.06,-1.26 -1.21,-1.74 -0.15,-0.48 0,-0.94 0.43,-1.35 4.33,-4.14 6.78,-9.09 7.4,-14.88 0.61,-5.78 -1.26,-11.03 -5.56,-15.79 -1.91,-2.2 -5.95,-6.53 -12.07,-12.94l-13.19 -13.76 -44.8 42.86c-3.87,3.72 -5.42,7.35 -4.62,10.93 0.78,3.6 3.44,8.13 7.98,13.52 1.16,1.43 3,3.48 5.56,6.12 2.32,2.44 4.23,4.33 5.71,5.66 6.99,6.41 14.37,10.93 22.13,13.47 7.71,2.54 14.97,3.87 21.72,3.97 6.8,0.09 14.34,-0.36 22.71,-1.38 0.75,-0.07 1.45,0.22 2.1,0.87 0.31,0.34 0.58,0.82 0.78,1.47zm89.4 150.62c-4.52,-3.92 -8.9,-8.78 -13.16,-14.61 -4.28,-5.85 -7.91,-11.68 -10.93,-17.56 -0.99,-1.65 -2.22,-3.15 -3.72,-4.45 -1.74,-1.5 -3.8,-2.44 -6.24,-2.8 -2.39,-0.37 -5.95,-0.56 -10.59,-0.56l21.38 -40.73 0.87 -1.69c0.19,-0.24 0.53,-0.34 1.02,-0.34 0.48,0.02 0.92,0.12 1.31,0.27 0.41,0.12 0.7,0.19 0.92,0.17 0.34,0.07 0.75,0.31 1.19,0.72 0.7,0.6 0.94,1.62 0.73,3.05 -4.72,30.38 2.35,53.75 21.19,70.12 7.52,6.53 15.67,10.28 24.48,11.22 8.81,0.96 16.67,-2.57 23.61,-10.52 3.7,-4.28 5.93,-9.22 6.63,-14.8 0.68,-5.59 -0.39,-11.39 -3.22,-17.51 -2.83,-6.29 -7.43,-14.78 -13.81,-25.4 -5.39,-8.52 -9.36,-15.72 -11.95,-21.63 -4.4,-10.33 -6.02,-19.52 -4.79,-27.57 1.24,-8.08 4.65,-15.33 10.28,-21.81 4.21,-4.84 9.85,-9.02 16.93,-12.51 7.11,-3.48 15.29,-4.74 24.57,-3.75 9.29,0.97 18.84,5.71 28.67,14.25 3.72,3.22 6.99,6.75 9.8,10.64 2.83,3.87 5.73,8.52 8.71,13.93 1.57,2.39 2.95,4.11 4.09,5.1 1.74,1.5 3.75,2.49 6,2.91 2.25,0.46 5.17,0.39 8.7,-0.2l-17.07 37.2 -0.87 1.67c-0.48,0.58 -1.48,0.65 -2.93,0.2 -0.89,-0.37 -1.5,-0.7 -1.84,-0.99 -0.58,-0.51 -0.82,-1.43 -0.7,-2.71 0.63,-3.53 0.87,-8.81 0.68,-15.87 -0.17,-7.04 -1.74,-14.9 -4.74,-23.61 -3,-8.69 -8.27,-16.26 -15.8,-22.81 -6.92,-6 -13.45,-9.12 -19.62,-9.29 -6.12,-0.17 -11.2,0.97 -15.21,3.36 -4.02,2.39 -6.89,4.65 -8.71,6.72 -6.63,7.62 -7.69,17.25 -3.19,28.86 1.31,3.39 3.24,7.28 5.78,11.73 2.54,4.43 5.2,8.88 8.03,13.35 7.84,12.48 13.19,22.08 16.04,28.83 4.57,11.08 5.97,20.83 4.26,29.24 -1.74,8.44 -5.3,15.72 -10.59,21.82 -6.02,6.94 -13.23,11.66 -21.57,14.15 -8.35,2.49 -17.22,2.47 -26.7,-0.07 -9.46,-2.54 -18.74,-7.79 -27.87,-15.72zm179.31 141.45c-4.83,-3.51 -9.65,-7.96 -14.41,-13.38 -4.77,-5.46 -8.9,-10.96 -12.43,-16.54 -1.11,-1.55 -2.49,-2.93 -4.09,-4.09 -1.86,-1.35 -4.01,-2.11 -6.46,-2.28 -2.44,-0.15 -6,-0.02 -10.62,0.39l17.7 -42.48 0.7 -1.74c0.19,-0.27 0.51,-0.39 0.99,-0.41 0.51,-0.05 0.94,0 1.33,0.12 0.41,0.1 0.72,0.12 0.92,0.1 0.36,0.05 0.77,0.26 1.26,0.6 0.75,0.56 1.09,1.52 0.99,2.98 -2.01,30.69 7.09,53.36 27.31,67.99 8.06,5.85 16.52,8.85 25.35,9.02 8.88,0.17 16.4,-4.02 22.59,-12.58 3.31,-4.59 5.11,-9.7 5.3,-15.31 0.19,-5.64 -1.38,-11.35 -4.74,-17.17 -3.36,-6.02 -8.71,-14.08 -16.02,-24.09 -6.12,-8.01 -10.69,-14.83 -13.81,-20.46 -5.3,-9.92 -7.72,-18.92 -7.18,-27.07 0.48,-8.15 3.26,-15.67 8.3,-22.62 3.77,-5.22 9.02,-9.87 15.77,-13.95 6.77,-4.09 14.8,-6.07 24.14,-5.91 9.34,0.12 19.28,4.02 29.83,11.64 3.96,2.9 7.54,6.14 10.69,9.75 3.15,3.6 6.46,7.98 9.89,13.13 1.79,2.22 3.31,3.82 4.55,4.72 1.84,1.33 3.94,2.13 6.22,2.35 2.27,0.24 5.18,-0.07 8.66,-0.97l-13.74 38.56 -0.7 1.77c-0.46,0.6 -1.43,0.75 -2.91,0.43 -0.92,-0.29 -1.57,-0.56 -1.93,-0.82 -0.63,-0.46 -0.94,-1.35 -0.92,-2.63 0.31,-3.58 0.07,-8.85 -0.75,-15.87 -0.78,-6.99 -3.02,-14.68 -6.8,-23.07 -3.75,-8.39 -9.67,-15.48 -17.73,-21.33 -7.43,-5.37 -14.2,-7.91 -20.37,-7.52 -6.12,0.36 -11.08,1.96 -14.85,4.69 -3.8,2.74 -6.48,5.22 -8.1,7.45 -5.93,8.2 -6.12,17.87 -0.63,29.05 1.62,3.24 3.87,6.97 6.8,11.18 2.93,4.16 5.98,8.37 9.17,12.58 8.93,11.73 15.09,20.82 18.53,27.28 5.52,10.64 7.81,20.24 6.82,28.78 -0.99,8.54 -3.87,16.11 -8.63,22.67 -5.39,7.45 -12.14,12.77 -20.22,15.99 -8.1,3.22 -16.96,3.96 -26.61,2.3 -9.65,-1.69 -19.35,-6.09 -29.15,-13.2zm281.21 119.56c0.85,1.02 0.94,2.06 0.34,3.12 -0.31,0.53 -1.26,1.38 -2.83,2.61 -9.8,7.76 -20.17,16.37 -31.11,25.78l-115.33 -66.69c-1.04,-0.61 -1.09,-1.79 -0.1,-3.51 0.92,-1.57 1.94,-2.06 2.98,-1.45l2.59 1.5c5.3,3.05 10.06,4.38 14.27,3.99 4.23,-0.41 7.96,-3.44 11.27,-9.15l61.27 -105.97c3.31,-5.7 4.04,-10.5 2.2,-14.39 -1.81,-3.87 -5.3,-7.28 -10.48,-10.28l-2.59 -1.5c-1.06,-0.61 -1.09,-1.81 -0.1,-3.53 0.92,-1.57 1.91,-2.06 2.98,-1.45l109.94 63.59c0,5.83 -0.1,12.51 -0.29,19.98 -0.19,7.5 -0.39,11.63 -0.65,12.39 -0.02,0.31 -0.12,0.7 -0.36,1.09 -0.39,0.68 -1.16,0.92 -2.32,0.8 -0.56,0.02 -1.14,-0.15 -1.81,-0.53 -0.8,-0.46 -1.26,-1.02 -1.43,-1.65 -2.32,-9.09 -6.82,-18.38 -13.4,-27.74 -6.6,-9.41 -14.76,-16.88 -24.43,-22.47l-4.16 -2.42c-5.44,-3.15 -9.75,-5.32 -12.94,-6.56 -3.17,-1.23 -6.12,-1.48 -8.83,-0.75 -2.74,0.72 -5.2,3.02 -7.43,6.84l-28.16 48.72 16.5 9.56c7.69,4.43 12.82,7.33 15.41,8.66 5.66,3.1 11.17,3.65 16.62,1.77 5.44,-1.91 9.65,-5.42 12.63,-10.59 0.31,-0.53 0.72,-0.8 1.23,-0.75 0.51,0.02 1.16,0.29 1.96,0.75 1.72,0.99 2.32,1.96 1.79,2.88l-26.68 46.13c-0.53,0.92 -1.67,0.87 -3.39,-0.12 -0.8,-0.46 -1.36,-0.89 -1.62,-1.33 -0.29,-0.41 -0.27,-0.89 0.05,-1.43 2.98,-5.18 3.94,-10.62 2.93,-16.35 -1.02,-5.71 -4.28,-10.23 -9.75,-13.59 -2.44,-1.6 -7.52,-4.59 -15.22,-9.05l-16.5 -9.56 -31.03 53.67c-2.69,4.65 -3.15,8.59 -1.41,11.81 1.77,3.24 5.59,6.82 11.44,10.74 1.52,1.04 3.87,2.49 7.06,4.33 2.91,1.69 5.28,2.98 7.06,3.82 8.52,4.21 16.83,6.48 25.01,6.77 8.13,0.29 15.48,-0.48 21.99,-2.27 6.53,-1.79 13.67,-4.35 21.41,-7.65 0.7,-0.29 1.48,-0.22 2.27,0.24 0.39,0.24 0.78,0.63 1.14,1.19zm66.67 82.07c-0.85,-0.39 -0.85,-1.48 -0.03,-3.29 0.75,-1.67 1.55,-2.32 2.4,-1.93l2.71 1.23c4.47,2.03 9.31,2.2 14.51,0.53 5.2,-1.67 9.05,-5.25 11.51,-10.67l50.15 -110.42c0.82,-5.18 0.39,-9.46 -1.35,-12.84 -1.74,-3.39 -5.01,-6.43 -9.85,-9.14l-2.83 -1.53c-0.92,-0.6 -1.04,-1.67 -0.34,-3.19 0.82,-1.81 1.72,-2.49 2.71,-2.06l41.19 18.7 28.08 150.96 41.39 -91.14c2.47,-5.44 2.54,-10.72 0.24,-15.82 -2.32,-5.08 -5.64,-8.59 -9.99,-10.55l-2.71 -1.23c-0.97,-0.44 -1.09,-1.5 -0.34,-3.19 0.85,-1.81 1.77,-2.49 2.73,-2.06l49.35 22.42c0.68,0.29 1.04,0.72 1.06,1.23 0.02,0.54 -0.17,1.26 -0.63,2.25 -0.75,1.67 -1.72,2.25 -2.8,1.74l-2.52 -1.14c-4.6,-2.08 -9.46,-2.32 -14.56,-0.68 -5.13,1.6 -8.93,5.2 -11.46,10.81l-58.97 129.84 -10.67 -4.84 -31.18 -170.77 -48.33 106.43c-2.52,5.59 -2.61,10.89 -0.26,15.87 2.35,5.03 5.76,8.56 10.2,10.59l2.52 1.13c0.97,0.44 1.09,1.5 0.34,3.17 -0.82,1.81 -1.74,2.49 -2.71,2.06l-49.56 -22.49zm322.21 128.41c-12.07,-3.51 -23.34,-9.92 -33.86,-19.25 -10.55,-9.34 -18.21,-21.24 -23.05,-35.7 -4.81,-14.46 -4.65,-30.65 0.56,-48.62 4.43,-15.28 11.93,-28.56 22.52,-39.86 10.59,-11.27 22.76,-19.23 36.55,-23.85 13.76,-4.65 27.43,-5.01 40.95,-1.09 4.55,1.33 8.8,3.1 12.67,5.35 3.89,2.25 7.93,4.93 12.12,8.06 2.01,1.38 3.92,2.63 5.73,3.82 1.84,1.13 3.39,1.93 4.72,2.3 4.55,1.33 9.39,0.56 14.52,-2.27 -1.04,21.24 -1.69,34.27 -1.98,39.11l-0.19 2.35c-0.24,0.87 -1.09,1.52 -2.47,1.94 -0.34,0.05 -0.72,0 -1.19,-0.12 -0.7,-0.22 -1.38,-0.94 -1.96,-2.22 -0.36,-1.07 -1.84,-5.66 -4.52,-13.74 -2.69,-8.13 -7.28,-15.46 -13.83,-22.06 -6.53,-6.6 -14.51,-11.25 -23.94,-13.98 -13.64,-3.94 -25.57,-2.06 -35.7,5.69 -10.11,7.76 -17.97,17.03 -23.56,27.74 -5.56,10.76 -9.5,20.1 -11.8,28.04 -4.62,16.04 -5.8,30.33 -3.53,42.84 2.28,12.55 6.89,22.67 13.81,30.41 6.92,7.74 14.88,12.91 23.85,15.5 11.76,3.41 22.42,3.19 32,-0.68 9.53,-3.85 19.23,-10.02 29,-18.48 0.99,-0.68 1.79,-0.94 2.37,-0.78 0.44,0.15 0.99,0.7 1.67,1.67 0.72,0.87 0.94,1.72 0.7,2.61l-0.82 1.19c-8.71,9.12 -19.06,16.5 -31.03,22.13 -12,5.61 -25.4,6.27 -40.28,1.98zm306.83 24.02c1.14,0.65 1.6,1.59 1.38,2.78 -0.12,0.63 -0.7,1.74 -1.77,3.43 -6.56,10.64 -13.37,22.28 -20.44,34.85l-131.15 -23.31c-1.21,-0.22 -1.65,-1.31 -1.31,-3.27 0.34,-1.81 1.11,-2.59 2.3,-2.39l2.95 0.53c6.02,1.06 10.96,0.7 14.78,-1.11 3.82,-1.81 6.31,-5.95 7.48,-12.46l21.43 -120.48c1.14,-6.51 0.19,-11.25 -2.85,-14.3 -3.02,-3.02 -7.47,-5.03 -13.35,-6.09l-2.95 -0.51c-1.21,-0.22 -1.65,-1.33 -1.28,-3.29 0.31,-1.81 1.09,-2.61 2.28,-2.39l125.05 22.25c1.98,5.47 4.16,11.78 6.56,18.89 2.4,7.11 3.61,11.05 3.61,11.85 0.09,0.31 0.12,0.7 0.05,1.16 -0.15,0.75 -0.8,1.26 -1.93,1.52 -0.51,0.22 -1.11,0.27 -1.89,0.12 -0.89,-0.15 -1.52,-0.51 -1.89,-1.04 -5.3,-7.77 -12.67,-14.95 -22.08,-21.53 -9.41,-6.58 -19.62,-10.81 -30.62,-12.77l-4.74 -0.85c-6.19,-1.11 -10.96,-1.69 -14.39,-1.77 -3.41,-0.05 -6.26,0.7 -8.56,2.32 -2.32,1.62 -3.85,4.62 -4.62,8.97l-9.85 55.39 18.75 3.33c8.76,1.55 14.56,2.52 17.46,2.88 6.36,0.99 11.76,-0.37 16.21,-3.99 4.45,-3.65 7.21,-8.39 8.27,-14.27 0.1,-0.61 0.39,-0.99 0.87,-1.11 0.51,-0.17 1.21,-0.14 2.11,0.03 1.96,0.34 2.85,1.04 2.66,2.08l-9.34 52.46c-0.19,1.06 -1.26,1.4 -3.22,1.06 -0.89,-0.17 -1.57,-0.39 -1.98,-0.7 -0.41,-0.29 -0.56,-0.78 -0.43,-1.35 1.04,-5.88 0.09,-11.35 -2.81,-16.37 -2.93,-5.01 -7.52,-8.18 -13.83,-9.46 -2.83,-0.65 -8.64,-1.76 -17.37,-3.31l-18.77 -3.34 -10.86 61.03c-0.92,5.3 -0.02,9.14 2.71,11.56 2.76,2.47 7.59,4.52 14.44,6.22 1.79,0.46 4.48,1.02 8.1,1.67 3.31,0.58 5.98,0.97 7.93,1.19 9.46,1.04 18.05,0.34 25.83,-2.2 7.74,-2.49 14.37,-5.71 19.88,-9.63 5.54,-3.92 11.37,-8.76 17.51,-14.49 0.56,-0.53 1.31,-0.7 2.23,-0.56 0.43,0.09 0.94,0.31 1.47,0.75zm200.43 20.8l-48.55 -3.75 1.31 -16.93 48.55 3.75 -1.31 16.93zm232.86 52.78c-8.44,0.22 -18.94,-2.01 -31.54,-6.67 -12.58,-4.67 -24,-13.09 -34.15,-25.25 -10.19,-12.17 -15.5,-28.54 -16.01,-49.22 -0.31,-12.56 2.22,-25.95 7.62,-40.15 5.39,-14.22 13.88,-26.39 25.42,-36.45 11.54,-10.09 25.88,-15.36 43.03,-15.77 5.35,-0.15 10.18,0.29 14.51,1.26 4.31,0.97 9,2.44 14.1,4.48 4.48,1.72 7.96,2.56 10.4,2.49 4.45,-0.1 8.76,-2.42 12.92,-6.97l10.13 38.58c0.19,0.75 0.29,1.59 0.31,2.52 0,0.46 -0.1,0.8 -0.34,1.04 -0.22,0.24 -0.56,0.43 -0.99,0.6 -0.46,0.31 -0.99,0.48 -1.62,0.48 -0.92,0.02 -1.76,-0.41 -2.54,-1.31 -5.25,-7.23 -10.21,-13.23 -14.93,-18 -4.72,-4.81 -10.52,-8.87 -17.41,-12.24 -6.89,-3.34 -14.85,-4.91 -23.87,-4.69 -14.1,0.34 -24.77,6.05 -31.98,17.1 -7.23,11.06 -11.85,22.89 -13.86,35.48 -1.98,12.6 -2.85,23.27 -2.63,32 0.34,14.68 3.51,27.6 9.43,38.7 5.93,11.1 13.04,19.64 21.28,25.57 8.28,5.93 15.92,8.8 22.96,8.63 10.11,-0.24 17.75,-2.64 22.93,-7.11 5.18,-4.5 8.44,-10.06 9.8,-16.67 1.24,-5.85 1.81,-11.15 1.69,-15.89 -0.02,-1.69 -0.26,-4.06 -0.63,-7.11 -0.56,-3.82 -2.32,-6.96 -5.28,-9.41 -2.97,-2.47 -8.97,-3.58 -18.02,-3.34 -1.21,0.02 -1.86,-0.97 -1.91,-2.97 -0.02,-1.07 0.07,-1.84 0.31,-2.28 0.19,-0.46 0.7,-0.72 1.45,-0.72l67.27 -1.65c1.24,-0.05 1.86,0.94 1.91,2.93 0.05,2.01 -0.54,3 -1.77,3.02 -5.35,0.15 -9.89,1.45 -13.57,3.89 -3.7,2.47 -5.78,6 -6.29,10.62 -0.24,2.15 -0.31,5.83 -0.17,11.03 0.19,8.1 0.68,18.67 1.45,31.66 -0.92,-0.12 -2.32,-0.17 -4.14,-0.12 -5.06,0.12 -9.63,0.7 -13.74,1.72 -4.11,1.02 -8.76,2.42 -13.93,4.23 -5.15,1.81 -9.8,3.22 -13.91,4.23 -4.11,1.04 -8.69,1.6 -13.72,1.72zm250.42 -20.75c-12.48,1.62 -25.13,-0.12 -38,-5.22 -12.84,-5.1 -24.04,-13.69 -33.57,-25.74 -9.53,-12.05 -15.48,-27.07 -17.83,-45.16 -2.37,-18.04 -0.48,-34.08 5.63,-48.08 6.12,-14.01 14.76,-25.13 25.86,-33.38 11.13,-8.25 22.91,-13.18 35.36,-14.83 12.29,-1.6 24.91,0.15 37.85,5.27 12.96,5.11 24.14,13.62 33.6,25.62 9.41,11.95 15.31,26.97 17.68,45.04 2.37,18.07 0.51,34.13 -5.52,48.21 -6.05,14.06 -14.66,25.23 -25.85,33.48 -11.2,8.27 -22.96,13.21 -35.22,14.8zm-0.97 -7.3c8.95,-1.16 16.79,-5.18 23.56,-12.09 6.72,-6.89 11.56,-16.57 14.49,-29 2.95,-12.43 3.29,-27.21 1.04,-44.39 -2.22,-17 -6.34,-31.13 -12.36,-42.38 -6.05,-11.24 -13.18,-19.3 -21.45,-24.19 -8.3,-4.86 -16.91,-6.7 -25.86,-5.52 -8.97,1.16 -16.81,5.15 -23.58,11.97 -6.75,6.85 -11.59,16.47 -14.51,28.88 -2.95,12.43 -3.29,27.14 -1.07,44.14 2.22,17.17 6.36,31.37 12.39,42.65 6.05,11.25 13.2,19.35 21.48,24.28 8.3,4.93 16.91,6.82 25.88,5.64zm175.97 -26.1c-1.07,0.24 -1.79,-0.6 -2.25,-2.54 -0.46,-1.96 -0.17,-3.05 0.9,-3.29l3.14 -0.73c6.1,-1.43 10.55,-3.67 13.28,-6.72 2.73,-3.07 3.39,-7.81 1.89,-14.24l-27.69 -119.22c-1.48,-6.43 -4.23,-10.43 -8.22,-12.02 -3.97,-1.59 -8.85,-1.69 -14.68,-0.34l-3.12 0.73c-1.06,0.24 -1.81,-0.63 -2.27,-2.56 -0.41,-1.79 -0.1,-2.81 0.96,-3.05l69.78 -16.2c0.75,-0.17 1.28,-0.05 1.62,0.34 0.31,0.41 0.6,1.11 0.85,2.18 0.41,1.79 0.02,2.81 -1.16,3.09l-2.9 0.68c-5.95,1.38 -10.35,3.63 -13.16,6.8 -2.8,3.19 -3.46,7.96 -1.96,14.39l28.11 121.02c1.21,5.22 3.56,8.37 7.02,9.46 3.48,1.09 8.7,1.04 15.67,-0.09l5.18 -0.97 7.57 -2.01c13.01,-3.48 23.1,-9.6 30.26,-18.36 7.19,-8.71 13.11,-18.89 17.8,-30.53 0.46,-0.72 0.97,-1.16 1.57,-1.31 0.15,-0.02 0.85,-0.05 2.1,-0.02 1.16,0.22 1.86,0.85 2.11,1.89l0.02 1.16 -1.41 10.23 -4.16 32.8 -126.84 29.46z"/>
   <path class="fil0" d="M4045.24 6038.2c-1.13,0.46 -2.08,-0.24 -2.78,-2.1 -0.68,-1.69 -0.46,-2.78 0.7,-3.22l2.76 -1.09c5.71,-2.22 9.72,-5.08 11.98,-8.54 2.27,-3.43 2.2,-8.2 -0.2,-14.34l-44.67 -114.19c-2.47,-6.29 -5.71,-9.92 -9.7,-10.89 -3.99,-0.99 -8.85,-0.36 -14.56,1.89l-2.76 1.06c-1.02,0.41 -1.89,-0.34 -2.61,-2.2 -0.68,-1.69 -0.51,-2.76 0.51,-3.15 11.85,-4.96 23.34,-9.63 34.47,-13.98 14.27,-5.59 25.81,-9.84 34.71,-12.84 12.77,-4.33 25.98,-6.05 39.65,-5.15 13.67,0.89 26.56,5.59 38.68,14.1 12.12,8.46 21.62,21.55 28.54,39.23 6.92,17.68 8.83,33.74 5.69,48.23 -3.12,14.46 -9.41,26.68 -18.82,36.72 -9.36,9.99 -20.24,17.73 -32.56,23.22 -5.32,2.4 -15.96,6.72 -31.93,12.96l-37.08 14.27zm61.44 -31.44c7.98,-3.12 15.38,-8.3 22.13,-15.55 6.77,-7.26 11.13,-17.42 12.99,-30.5 1.89,-13.04 -0.85,-28.9 -8.15,-47.6 -7.3,-18.67 -16.06,-32.15 -26.29,-40.39 -10.21,-8.25 -20.22,-12.74 -30.04,-13.52 -9.84,-0.75 -18.82,0.46 -26.94,3.65l-1.52 0.58c-6.56,2.56 -10.81,5.37 -12.72,8.44 -1.91,3.05 -1.91,7.09 0.05,12.05l45.86 117.22c1.96,4.98 4.67,7.93 8.1,8.78 3.46,0.87 8.49,0.02 15.05,-2.54l1.5 -0.61zm288.2 -172.56c1.31,-0.17 2.25,0.31 2.78,1.38 0.29,0.56 0.51,1.81 0.68,3.8 1.26,12.43 2.93,25.83 4.93,40.11l-118.35 61.12c-1.09,0.56 -2.1,-0.05 -3,-1.81 -0.85,-1.62 -0.7,-2.73 0.37,-3.29l2.66 -1.38c5.44,-2.8 9.12,-6.09 11.06,-9.84 1.96,-3.78 1.41,-8.56 -1.62,-14.42l-56.14 -108.78c-3.05,-5.85 -6.68,-9.04 -10.93,-9.63 -4.23,-0.56 -9.02,0.56 -14.32,3.29l-2.66 1.38c-1.09,0.56 -2.11,-0.07 -3.02,-1.81 -0.82,-1.65 -0.7,-2.76 0.39,-3.31l112.84 -58.27c4.91,3.17 10.47,6.85 16.69,11.06 6.22,4.19 9.58,6.6 10.06,7.21 0.27,0.19 0.53,0.51 0.72,0.92 0.37,0.68 0.15,1.48 -0.58,2.37 -0.27,0.48 -0.75,0.9 -1.43,1.26 -0.82,0.41 -1.52,0.51 -2.15,0.31 -8.93,-2.95 -19.16,-4.19 -30.6,-3.7 -11.49,0.48 -22.16,3.31 -32.1,8.44l-4.28 2.2c-5.59,2.88 -9.72,5.32 -12.5,7.35 -2.73,2.03 -4.55,4.38 -5.39,7.04 -0.85,2.69 -0.24,6 1.79,9.94l25.81 50 16.93 -8.76c7.89,-4.06 13.09,-6.85 15.6,-8.3 5.66,-3.07 9.12,-7.43 10.45,-13.01 1.33,-5.61 0.65,-11.06 -2.11,-16.37 -0.26,-0.54 -0.26,-1.02 0.02,-1.43 0.31,-0.41 0.9,-0.82 1.69,-1.26 1.77,-0.9 2.91,-0.9 3.39,0.07l24.46 47.34c0.48,0.94 -0.15,1.86 -1.91,2.78 -0.82,0.44 -1.5,0.65 -2.01,0.65 -0.51,0.02 -0.9,-0.27 -1.19,-0.8 -2.74,-5.32 -6.8,-9.07 -12.17,-11.3 -5.37,-2.22 -10.93,-1.93 -16.74,0.87 -2.64,1.21 -7.91,3.85 -15.8,7.91l-16.96 8.76 28.44 55.08c2.47,4.76 5.54,7.28 9.19,7.55 3.68,0.26 8.76,-1.02 15.21,-3.85 1.69,-0.7 4.19,-1.91 7.45,-3.61 3,-1.52 5.35,-2.83 7.04,-3.87 8.13,-4.91 14.54,-10.69 19.18,-17.41 4.62,-6.7 7.96,-13.28 9.97,-19.74 2.01,-6.48 3.7,-13.86 5.1,-22.15 0.12,-0.75 0.61,-1.33 1.43,-1.77 0.41,-0.22 0.94,-0.31 1.62,-0.31zm104.57 -8.17c-0.78,0.48 -1.69,-0.1 -2.78,-1.77 -0.99,-1.52 -1.11,-2.56 -0.34,-3.05l2.49 -1.62c4.14,-2.66 6.89,-6.65 8.32,-11.95 1.38,-5.27 0.46,-10.43 -2.78,-15.43l-65.87 -101.83c-3.89,-3.51 -7.74,-5.42 -11.51,-5.8 -3.82,-0.36 -8.15,0.75 -13.01,3.36l-2.83 1.57c-1.02,0.44 -1.96,-0.05 -2.85,-1.45 -1.09,-1.69 -1.19,-2.8 -0.27,-3.39l37.98 -24.57 142.23 57.88 -54.38 -84.05c-3.24,-5.01 -7.64,-7.94 -13.18,-8.73 -5.52,-0.8 -10.28,0.09 -14.27,2.69l-2.49 1.62c-0.89,0.58 -1.86,0.12 -2.85,-1.43 -1.09,-1.69 -1.16,-2.83 -0.29,-3.41l45.52 -29.44c0.63,-0.41 1.19,-0.48 1.62,-0.22 0.46,0.27 0.97,0.82 1.55,1.74 1.02,1.55 0.97,2.66 -0.05,3.31l-2.3 1.5c-4.26,2.73 -7.09,6.7 -8.44,11.88 -1.43,5.18 -0.44,10.33 2.9,15.5l77.45 119.73 -9.85 6.39 -160.56 -65.98 63.5 98.15c3.31,5.13 7.72,8.08 13.2,8.78 5.49,0.75 10.31,-0.22 14.42,-2.85l2.3 -1.5c0.89,-0.58 1.86,-0.12 2.88,1.43 1.06,1.67 1.14,2.81 0.24,3.39l-45.69 29.56zm394.8 -306.63c0.92,-0.8 1.98,-0.51 3.19,0.89 1.28,1.5 1.48,2.64 0.53,3.46l-54.08 46.61c-0.82,0.7 -1.87,0.31 -3.17,-1.21 -1.19,-1.38 -1.41,-2.42 -0.58,-3.12l2.44 -2.11c4.64,-4.01 7.43,-8.03 8.37,-12.09 0.94,-4.07 -0.7,-8.56 -5.01,-13.57l-39.89 -46.27 -60.37 52.03 39.89 46.27c4.3,5.01 8.51,7.28 12.6,6.89 4.09,-0.41 8.54,-2.66 13.28,-6.75l2.27 -1.96c0.56,-0.48 1.11,-0.65 1.57,-0.43 0.48,0.19 1.06,0.68 1.76,1.5 1.21,1.4 1.33,2.52 0.41,3.29l-54.11 46.64c-0.82,0.7 -1.81,0.36 -3.02,-1.04 -1.31,-1.52 -1.55,-2.61 -0.72,-3.31l2.44 -2.11c4.62,-3.99 7.45,-8.06 8.44,-12.14 1.04,-4.11 -0.56,-8.61 -4.76,-13.5l-80.06 -92.88c-4.28,-4.98 -8.52,-7.26 -12.67,-6.8 -4.16,0.46 -8.56,2.69 -13.19,6.68l-2.44 2.1c-0.82,0.7 -1.89,0.29 -3.19,-1.23 -1.28,-1.5 -1.52,-2.59 -0.7,-3.29l54.11 -46.63c0.9,-0.8 2.03,-0.46 3.31,1.04 1.31,1.5 1.5,2.69 0.58,3.48l-2.27 1.96c-4.89,4.19 -7.74,8.25 -8.64,12.14 -0.89,3.89 0.82,8.32 5.11,13.3l34.66 40.2 60.35 -52 -34.49 -40.03c-4.31,-5.01 -8.54,-7.28 -12.75,-6.92 -4.23,0.41 -8.61,2.61 -13.28,6.63l-2.44 2.08c-0.8,0.7 -1.79,0.37 -3,-1.04 -1.31,-1.52 -1.55,-2.61 -0.75,-3.31l54.11 -46.64c0.58,-0.51 1.14,-0.65 1.59,-0.43 0.48,0.19 1.04,0.7 1.74,1.52 1.21,1.38 1.35,2.46 0.41,3.29l-2.25 1.94c-4.77,4.11 -7.57,8.13 -8.49,12.14 -0.89,4.02 0.8,8.49 5.11,13.5l79.75 92.86c4.3,5.01 8.51,7.33 12.67,6.99 4.16,-0.34 8.61,-2.56 13.38,-6.65l2.25 -1.96zm146.07 -203.23c1.19,-0.56 2.23,-0.41 3.1,0.41 0.46,0.44 1.06,1.55 1.86,3.36 5.25,11.37 11.15,23.49 17.7,36.35l-92.08 96.24c-0.85,0.87 -1.98,0.65 -3.41,-0.72 -1.33,-1.28 -1.57,-2.37 -0.72,-3.24l2.06 -2.15c4.23,-4.43 6.65,-8.76 7.28,-12.92 0.6,-4.21 -1.48,-8.56 -6.24,-13.11l-88.43 -84.61c-4.79,-4.57 -9.24,-6.41 -13.47,-5.56 -4.19,0.85 -8.35,3.43 -12.48,7.76l-2.06 2.15c-0.85,0.87 -2.01,0.63 -3.43,-0.72 -1.33,-1.28 -1.57,-2.37 -0.73,-3.24l87.8 -91.79c5.66,1.4 12.12,3.07 19.35,5.03 7.23,1.96 11.2,3.12 11.85,3.56 0.31,0.09 0.68,0.29 0.99,0.6 0.56,0.56 0.63,1.38 0.22,2.44 -0.09,0.56 -0.41,1.09 -0.94,1.65 -0.63,0.68 -1.28,0.99 -1.94,1.02 -9.39,0.09 -19.47,2.25 -30.14,6.46 -10.69,4.19 -19.88,10.33 -27.6,18.38l-3.34 3.48c-4.35,4.55 -7.47,8.2 -9.43,11.03 -1.94,2.78 -2.88,5.61 -2.83,8.42 0.07,2.8 1.72,5.76 4.91,8.8l40.66 38.89 13.18 -13.76c6.15,-6.41 10.16,-10.74 12.07,-12.94 4.33,-4.74 6.22,-9.99 5.66,-15.7 -0.58,-5.73 -3,-10.67 -7.31,-14.8 -0.46,-0.41 -0.6,-0.87 -0.46,-1.35 0.14,-0.48 0.56,-1.06 1.21,-1.74 1.35,-1.43 2.44,-1.77 3.19,-1.04l38.51 36.84c0.77,0.72 0.48,1.81 -0.9,3.24 -0.63,0.68 -1.19,1.11 -1.69,1.28 -0.46,0.17 -0.94,0.05 -1.38,-0.39 -4.3,-4.13 -9.36,-6.36 -15.17,-6.72 -5.81,-0.34 -10.98,1.74 -15.56,6.26 -2.1,2.01 -6.24,6.22 -12.36,12.63l-13.18 13.76 44.8 42.86c3.87,3.72 7.59,5.08 11.13,4.16 3.58,-0.94 7.96,-3.82 13.16,-8.59 1.38,-1.21 3.34,-3.17 5.88,-5.83 2.32,-2.42 4.11,-4.4 5.39,-5.95 6.1,-7.28 10.28,-14.83 12.48,-22.69 2.2,-7.84 3.19,-15.14 3,-21.91 -0.19,-6.78 -1.02,-14.3 -2.37,-22.62 -0.12,-0.75 0.15,-1.48 0.78,-2.13 0.31,-0.34 0.8,-0.63 1.43,-0.85zm184.53 -186.03c0.37,-0.51 0.82,-0.65 1.43,-0.41 0.58,0.24 1.16,0.58 1.79,1.04 1.5,1.07 1.96,1.98 1.43,2.73l-42.43 58.59c-0.63,0.87 -1.69,0.75 -3.17,-0.31 -1.62,-1.16 -2.11,-2.18 -1.48,-3.05 7.91,-11.46 9.07,-19.23 3.51,-23.27 -1.35,-0.96 -3.99,-2.06 -7.89,-3.17l-34.42 -10.48 -34.91 48.19 18.6 26.8c2.37,3.02 4.26,5.06 5.76,6.15 7.57,5.49 15.74,2.15 24.55,-9.99 0.63,-0.87 1.76,-0.72 3.36,0.44 1.48,1.06 1.91,2.06 1.28,2.93l-33.81 46.69c-0.63,0.87 -1.69,0.77 -3.17,-0.31 -1.62,-1.16 -2.11,-2.18 -1.48,-3.05 2.88,-3.97 4.4,-8.73 4.55,-14.32 0.15,-5.56 -1.89,-11.54 -6.09,-18 -4.45,-7.19 -30.09,-46.18 -76.94,-116.98l-6.51 -9.82 4.81 -13.26c0.99,-1.35 2.2,-1.79 3.72,-1.26l26.97 8.17c16.35,4.86 38.89,11.63 67.63,20.37 28.76,8.73 45.67,13.76 50.72,15.17 6.05,1.52 10.98,2.18 14.78,1.91 3.78,-0.29 6.96,-1.35 9.51,-3.17 2.56,-1.84 5.2,-4.62 7.88,-8.32zm-89.86 19.13l-75.71 -23.1c5.42,8.69 20.22,30.81 44.31,66.42l31.39 -43.32zm143.9 -93.39c-0.56,0.94 -1.69,0.89 -3.39,-0.1 -1.74,-1.02 -2.32,-1.98 -1.77,-2.93l1.62 -2.78c3.17,-5.39 4.57,-10.18 4.23,-14.27 -0.34,-4.11 -3.36,-7.81 -9.05,-11.15l-105.63 -61.82c-5.71,-3.34 -10.47,-4.09 -14.39,-2.3 -3.9,1.81 -7.33,5.27 -10.35,10.45l-1.62 2.76c-0.53,0.94 -1.69,0.89 -3.41,-0.1 -1.57,-0.94 -2.1,-1.86 -1.55,-2.81l36.19 -61.82c0.39,-0.68 0.85,-0.97 1.35,-0.94 0.51,0.05 1.23,0.31 2.15,0.87 1.59,0.92 2.08,1.91 1.45,2.98l-1.5 2.56c-3.07,5.3 -4.45,10.04 -4.09,14.25 0.39,4.21 3.41,7.96 9.09,11.3l107.23 62.77c4.62,2.71 8.54,3.17 11.7,1.41 3.17,-1.79 6.72,-5.61 10.67,-11.46l2.88 -4.43 3.75 -6.87c6.41,-11.85 8.9,-23.39 7.48,-34.59 -1.41,-11.2 -4.74,-22.52 -9.97,-33.91 -0.22,-0.82 -0.17,-1.52 0.15,-2.06 0.07,-0.12 0.53,-0.63 1.43,-1.55 0.94,-0.68 1.89,-0.78 2.8,-0.24l0.87 0.8 6.46 8.06 20.97 25.57 -65.77 112.38zm135.74 -251.19c-0.39,0.82 -1.48,0.85 -3.29,0.02 -1.67,-0.75 -2.32,-1.55 -1.93,-2.4l1.33 -2.93c2.52,-5.59 3.33,-10.47 2.46,-14.66 -0.87,-4.16 -4.26,-7.59 -10.11,-10.26l-113.1 -51.35c-5.03,-2.28 -9.15,-2.47 -12.36,-0.58 -3.24,1.89 -5.95,5.3 -8.15,10.19 -0.39,0.82 -0.94,2.42 -1.67,4.79 -2.15,6.6 -2.47,14.78 -0.94,24.55 1.52,9.75 4.23,17.97 8.13,24.63 0.53,1.06 0.63,1.96 0.29,2.66 -0.12,0.27 -0.43,0.61 -0.99,1.07 -1.11,0.99 -1.96,1.35 -2.52,1.11 -0.41,-0.19 -0.89,-0.58 -1.47,-1.19 -2.37,-2.25 -5.9,-5.73 -10.62,-10.47 -4.74,-4.79 -9,-9.12 -12.77,-13.01l58.48 -128.8 20.61 1.28 12.55 0.65 1.77 0.56c0.56,0.24 0.87,1.06 0.92,2.44 0.03,0.68 -0.05,1.21 -0.24,1.65 -0.39,0.82 -1.11,1.33 -2.2,1.52 -7.57,1.45 -15.53,4.79 -23.87,10.09 -8.37,5.27 -14.32,10.89 -17.87,16.86 -1.31,2.08 -2.13,3.56 -2.52,4.4 -2.28,5.03 -3.02,9.36 -2.22,12.99 0.75,3.65 3.6,6.56 8.49,8.78l113.13 51.35c6,2.73 10.83,2.98 14.54,0.82 3.68,-2.22 6.77,-6.02 9.24,-11.46l1.23 -2.71c0.44,-0.99 1.5,-1.09 3.17,-0.34 1.81,0.82 2.49,1.72 2.03,2.71l-29.51 65.04zm125.46 -368c0.34,-1.19 1.38,-1.52 3.14,-1.02 1.91,0.53 2.71,1.38 2.37,2.56l-19.44 68.74c-0.29,1.02 -1.4,1.26 -3.29,0.72 -1.79,-0.51 -2.52,-1.26 -2.22,-2.3l0.87 -3.09c1.67,-5.9 1.79,-10.81 0.34,-14.71 -1.45,-3.89 -5.32,-6.75 -11.68,-8.56l-58.76 -16.62 -21.69 76.68 58.75 16.64c6.36,1.79 11.13,1.38 14.32,-1.21 3.19,-2.59 5.66,-6.92 7.35,-12.94l0.82 -2.9c0.22,-0.7 0.58,-1.14 1.09,-1.21 0.51,-0.12 1.26,-0.02 2.3,0.27 1.76,0.51 2.49,1.35 2.15,2.51l-19.44 68.74c-0.29,1.04 -1.33,1.31 -3.1,0.8 -1.93,-0.56 -2.73,-1.33 -2.44,-2.37l0.87 -3.1c1.67,-5.9 1.79,-10.83 0.39,-14.8 -1.43,-3.99 -5.22,-6.87 -11.41,-8.61l-118.02 -33.38c-6.34,-1.79 -11.1,-1.35 -14.32,1.31 -3.22,2.66 -5.66,6.96 -7.33,12.84l-0.87 3.09c-0.31,1.04 -1.43,1.28 -3.34,0.75 -1.91,-0.56 -2.71,-1.33 -2.42,-2.37l19.44 -68.74c0.34,-1.16 1.45,-1.5 3.36,-0.94 1.91,0.54 2.71,1.41 2.4,2.59l-0.82 2.88c-1.74,6.19 -1.94,11.15 -0.51,14.87 1.4,3.75 5.27,6.51 11.59,8.3l51.08 14.44 21.67 -76.65 -50.82 -14.39c-6.36,-1.79 -11.15,-1.38 -14.46,1.26 -3.29,2.66 -5.76,6.92 -7.43,12.84l-0.87 3.09c-0.29,1.02 -1.33,1.28 -3.1,0.78 -1.93,-0.53 -2.73,-1.33 -2.44,-2.35l19.44 -68.74c0.2,-0.72 0.58,-1.16 1.09,-1.23 0.51,-0.12 1.23,0 2.3,0.29 1.76,0.51 2.49,1.33 2.15,2.52l-0.82 2.88c-1.69,6.05 -1.83,10.96 -0.39,14.8 1.48,3.85 5.35,6.65 11.71,8.44l117.72 33.55c6.33,1.79 11.13,1.4 14.41,-1.19 3.27,-2.56 5.78,-6.87 7.48,-12.91l0.82 -2.85z"/>
   <circle class="fil1" cx="5669.65" cy="3311.14" r="85.97"/>
   <g>
    <path class="fil2" d="M3312.24 1867.46c345.52,0 656.89,179.23 880.93,468.94 220.12,284.66 356.28,676.92 356.28,1109.38 0,432.46 -136.16,824.72 -356.28,1109.38 -224.04,289.71 -535.41,468.89 -880.93,468.89 -345.52,0 -656.89,-179.18 -880.93,-468.89 -220.12,-284.66 -356.28,-676.92 -356.28,-1109.38 0,-432.46 136.16,-824.72 356.28,-1109.38 224.04,-289.71 535.41,-468.94 880.93,-468.94zm799.89 514.24c-206.09,-266.52 -489.01,-431.37 -799.89,-431.37 -310.87,0 -593.8,164.85 -799.89,431.37 -210.01,271.57 -339.92,647.72 -339.92,1064.07 0,416.35 129.91,792.5 339.92,1064.07 206.09,266.51 489.01,431.37 799.89,431.37 310.88,0 593.8,-164.86 799.89,-431.37 210.06,-271.57 339.97,-647.72 339.97,-1064.07 0,-416.35 -129.91,-792.5 -339.97,-1064.07z"/>
    <path class="fil1" d="M3217.65 3786.3l-191.82 563.11c-53.08,160.54 -98.24,189.09 -218.48,189.09 -12.83,0 -21.81,9.56 -26.96,28.6 -5.1,19.08 -1.29,28.6 11.55,28.6 611.04,40.5 1777.22,23.15 1703.92,-870.67 -14.67,-178.59 -109.24,-342.94 -303.3,-441.78 -146.71,-74.74 -348.49,-120.2 -613.57,-120.2l-443.02 -0.99c-11.25,0 -19.19,6.89 -24.34,25.92 -5.11,19.08 -3.02,40.59 8.18,40.89 333.63,8.33 212.64,519.65 -156.38,557.11 -173.48,17.6 -371.35,-60.12 -469.29,-262.2 -160.49,-331.1 -64.09,-873.94 372.54,-1034.68 360,-132.49 737.44,-21.66 765.59,141.01 11.55,66.72 -31.52,112.02 -90.66,175.22 -227.35,242.97 223.05,242.97 126.54,0 -26.91,-67.71 -41.83,-106.52 2.28,-175.17 58.83,-91.6 184.48,-195.04 228.15,-261.66 2.48,-3.77 2.63,-7.73 0.4,-10.66 -2.23,-2.92 -6.24,-3.96 -10.76,-2.82 -400.04,114.5 -714.39,-52.19 -1177.18,73.11 -128.63,34.8 -237.57,100.02 -325.3,184.63 -255.76,246.59 -331.55,657.64 -189.59,959.79 41.39,88.13 101.26,166.99 180.62,229.79 252.24,199.6 633.2,190.83 840.88,-16.06zm-42.13 759.99l421.36 -1318c168.18,-5.45 349.88,17.25 487.08,122.87 435.13,335.17 85.3,1249.8 -908.44,1195.13z"/>
   </g>
   <circle class="fil1" cx="997.01" cy="3311.14" r="85.97"/>
  </g>
 </g>
</svg>
